<?xml version="1.0" encoding="UTF-8"?>
<svg xmlns="http://www.w3.org/2000/svg" xmlns:xlink="http://www.w3.org/1999/xlink" width="60pt" height="80pt" viewBox="0 0 60 80" version="1.1">
<g id="surface28521">
<path style="fill:none;stroke-width:1;stroke-linecap:butt;stroke-linejoin:miter;stroke:rgb(0%,0%,0%);stroke-opacity:1;stroke-miterlimit:10;" d="M 29.203125 10.355469 C 29.929688 10.355469 30.800781 10.398438 31.8125 10.480469 C 32.832031 10.566406 33.894531 10.730469 35 10.980469 C 36.101562 11.230469 37.1875 11.605469 38.25 12.105469 C 39.3125 12.605469 40.269531 13.257812 41.125 14.058594 C 41.976562 14.851562 42.660156 15.832031 43.171875 16.996094 C 43.691406 18.164062 43.953125 19.566406 43.953125 21.199219 L 43.953125 36.402344 L 43.546875 36.542969 C 43.546875 36.542969 43.035156 36.707031 42.015625 37.027344 C 41.003906 37.339844 39.707031 37.683594 38.125 38.058594 C 36.539062 38.425781 34.773438 38.761719 32.828125 39.074219 C 30.878906 39.386719 28.9375 39.542969 27 39.542969 C 22.601562 39.542969 19.1875 38.664062 16.75 36.902344 C 14.082031 34.996094 12.75 32.261719 12.75 28.699219 L 12.75 22.402344 C 12.75 21.996094 13 21.761719 13.5 21.699219 C 13.726562 21.636719 14.3125 21.554688 15.25 21.449219 C 16.1875 21.347656 17.328125 21.253906 18.671875 21.167969 C 20.023438 21.085938 21.523438 21.039062 23.171875 21.027344 C 24.828125 21.007812 26.507812 21.066406 28.21875 21.199219 C 29.9375 21.335938 31.617188 21.554688 33.265625 21.855469 C 34.921875 22.148438 36.414062 22.582031 37.75 23.152344 L 37.75 21.199219 C 37.75 20.898438 37.707031 20.492188 37.625 19.980469 C 37.539062 19.460938 37.234375 18.945312 36.703125 18.433594 C 36.171875 17.914062 35.320312 17.460938 34.15625 17.074219 C 32.988281 16.691406 31.335938 16.496094 29.203125 16.496094 C 27.929688 16.496094 26.585938 16.523438 25.171875 16.574219 C 23.753906 16.628906 22.394531 16.679688 21.09375 16.730469 C 19.800781 16.773438 18.644531 16.835938 17.625 16.917969 C 16.601562 17.003906 15.878906 17.066406 15.453125 17.105469 L 14.90625 11.699219 C 16.4375 11.472656 18.019531 11.253906 19.65625 11.042969 C 21.050781 10.878906 22.585938 10.722656 24.265625 10.574219 C 25.953125 10.429688 27.597656 10.355469 29.203125 10.355469 Z M 37.09375 31.996094 C 37.257812 31.933594 37.394531 31.863281 37.5 31.777344 C 37.601562 31.695312 37.65625 31.519531 37.65625 31.246094 L 37.65625 28.105469 C 36.21875 27.605469 34.539062 27.246094 32.625 27.027344 C 30.707031 26.808594 28.820312 26.695312 26.96875 26.683594 C 25.125 26.664062 23.453125 26.730469 21.953125 26.886719 C 20.453125 27.035156 19.398438 27.207031 18.796875 27.402344 L 18.796875 28.699219 C 18.796875 29.667969 18.945312 30.386719 19.25 30.855469 C 19.550781 31.316406 19.882812 31.664062 20.25 31.902344 C 20.71875 32.269531 21.550781 32.601562 22.75 32.902344 C 23.945312 33.207031 25.5 33.355469 27.40625 33.355469 C 30.40625 33.355469 33.632812 32.902344 37.09375 31.996094 Z M 46.949219 39.199219 "/>
</g>
</svg>
