<?xml version="1.0" encoding="UTF-8"?>
<svg xmlns="http://www.w3.org/2000/svg" xmlns:xlink="http://www.w3.org/1999/xlink" width="60pt" height="80pt" viewBox="0 0 60 80" version="1.1">
<g id="surface28526">
<path style="fill:none;stroke-width:1;stroke-linecap:butt;stroke-linejoin:miter;stroke:rgb(0%,0%,0%);stroke-opacity:1;stroke-miterlimit:10;" d="M 30 19.355469 C 32.132812 19.355469 34.097656 19.660156 35.890625 20.261719 C 37.691406 20.855469 39.234375 21.761719 40.515625 22.980469 C 41.804688 24.191406 42.804688 25.710938 43.515625 27.542969 C 44.234375 29.378906 44.59375 31.527344 44.59375 33.996094 C 44.59375 36.464844 44.234375 38.617188 43.515625 40.449219 C 42.804688 42.285156 41.804688 43.808594 40.515625 45.027344 C 39.234375 46.246094 37.691406 47.160156 35.890625 47.761719 C 34.097656 48.355469 32.132812 48.652344 30 48.652344 C 28.5 48.652344 27.003906 48.558594 25.515625 48.371094 C 24.035156 48.195312 22.632812 47.964844 21.3125 47.683594 C 20 47.394531 18.800781 47.101562 17.71875 46.808594 C 16.632812 46.507812 15.742188 46.238281 15.046875 45.996094 L 13.046875 45.246094 L 13 45.246094 L 13 11.449219 C 13 11.253906 13.070312 11.097656 13.21875 10.980469 C 13.375 10.855469 13.550781 10.761719 13.75 10.699219 C 13.945312 10.636719 14.296875 10.582031 14.796875 10.527344 C 15.296875 10.476562 15.726562 10.449219 16.09375 10.449219 C 16.5 10.449219 16.953125 10.476562 17.453125 10.527344 C 17.953125 10.582031 18.300781 10.636719 18.5 10.699219 C 18.664062 10.761719 18.820312 10.855469 18.96875 10.980469 C 19.125 11.097656 19.203125 11.253906 19.203125 11.449219 L 19.203125 21.246094 C 20.671875 20.777344 22.363281 20.347656 24.28125 19.949219 C 26.195312 19.554688 28.101562 19.355469 30 19.355469 Z M 19.15625 40.199219 C 19.15625 40.472656 19.195312 40.660156 19.28125 40.761719 C 19.363281 40.855469 19.488281 40.917969 19.65625 40.949219 C 20.15625 41.085938 20.78125 41.238281 21.53125 41.402344 C 22.28125 41.570312 23.113281 41.730469 24.03125 41.886719 C 24.945312 42.035156 25.910156 42.164062 26.921875 42.277344 C 27.941406 42.394531 28.96875 42.449219 30 42.449219 C 32 42.449219 33.546875 42.085938 34.640625 41.355469 C 35.742188 40.617188 36.550781 39.769531 37.0625 38.808594 C 37.582031 37.839844 37.898438 36.898438 38.015625 35.980469 C 38.140625 35.066406 38.203125 34.402344 38.203125 33.996094 C 38.203125 33.601562 38.140625 32.941406 38.015625 32.011719 C 37.898438 31.074219 37.582031 30.121094 37.0625 29.152344 C 36.550781 28.183594 35.742188 27.335938 34.640625 26.605469 C 33.546875 25.867188 32 25.496094 30 25.496094 C 28.894531 25.496094 27.8125 25.539062 26.75 25.621094 C 25.6875 25.707031 24.671875 25.816406 23.703125 25.949219 C 22.734375 26.085938 21.859375 26.238281 21.078125 26.402344 C 20.296875 26.570312 19.65625 26.722656 19.15625 26.855469 Z M 46.601562 48.199219 "/>
</g>
</svg>
