<?xml version="1.0" encoding="UTF-8"?>
<svg xmlns="http://www.w3.org/2000/svg" xmlns:xlink="http://www.w3.org/1999/xlink" width="60pt" height="80pt" viewBox="0 0 60 80" version="1.1">
<g id="surface28531">
<path style="fill:none;stroke-width:1;stroke-linecap:butt;stroke-linejoin:miter;stroke:rgb(0%,0%,0%);stroke-opacity:1;stroke-miterlimit:10;" d="M 26.59375 39.753906 C 24.425781 39.753906 22.453125 39.457031 20.671875 38.863281 C 18.890625 38.261719 17.359375 37.347656 16.078125 36.128906 C 14.796875 34.910156 13.796875 33.386719 13.078125 31.550781 C 12.359375 29.71875 12 27.566406 12 25.097656 C 12 22.628906 12.359375 20.480469 13.078125 18.644531 C 13.796875 16.8125 14.796875 15.292969 16.078125 14.082031 C 17.359375 12.863281 18.890625 11.957031 20.671875 11.363281 C 22.453125 10.761719 24.425781 10.457031 26.59375 10.457031 C 28.195312 10.457031 29.738281 10.53125 31.21875 10.675781 C 32.707031 10.824219 34.035156 10.980469 35.203125 11.144531 C 36.535156 11.355469 37.816406 11.589844 39.046875 11.847656 L 38.5 17.207031 C 38.03125 17.167969 37.382812 17.105469 36.5625 17.019531 C 35.75 16.9375 34.8125 16.875 33.75 16.832031 C 32.6875 16.78125 31.535156 16.730469 30.296875 16.675781 C 29.066406 16.625 27.832031 16.597656 26.59375 16.597656 C 24.59375 16.597656 23.039062 16.96875 21.9375 17.707031 C 20.84375 18.4375 20.03125 19.285156 19.5 20.253906 C 18.96875 21.222656 18.640625 22.175781 18.515625 23.113281 C 18.398438 24.042969 18.34375 24.703125 18.34375 25.097656 C 18.34375 25.503906 18.398438 26.167969 18.515625 27.082031 C 18.640625 28 18.96875 28.941406 19.5 29.910156 C 20.03125 30.871094 20.84375 31.71875 21.9375 32.457031 C 23.039062 33.1875 24.59375 33.550781 26.59375 33.550781 C 27.832031 33.550781 29.066406 33.535156 30.296875 33.503906 C 31.535156 33.472656 32.6875 33.425781 33.75 33.363281 C 34.8125 33.292969 35.75 33.222656 36.5625 33.160156 C 37.382812 33.089844 38.03125 33.019531 38.5 32.957031 L 39.046875 38.347656 C 37.816406 38.621094 36.535156 38.855469 35.203125 39.050781 C 34.035156 39.21875 32.707031 39.371094 31.21875 39.519531 C 29.738281 39.675781 28.195312 39.753906 26.59375 39.753906 Z M 41.550781 39.300781 "/>
</g>
</svg>
