<?xml version="1.0" encoding="UTF-8"?>
<svg xmlns="http://www.w3.org/2000/svg" xmlns:xlink="http://www.w3.org/1999/xlink" width="60pt" height="80pt" viewBox="0 0 60 80" version="1.1">
<g id="surface28536">
<path style="fill:none;stroke-width:1;stroke-linecap:butt;stroke-linejoin:miter;stroke:rgb(0%,0%,0%);stroke-opacity:1;stroke-miterlimit:10;" d="M 12 33.996094 C 12 31.527344 12.359375 29.378906 13.078125 27.542969 C 13.796875 25.710938 14.796875 24.191406 16.078125 22.980469 C 17.359375 21.761719 18.890625 20.855469 20.671875 20.261719 C 22.453125 19.660156 24.425781 19.355469 26.59375 19.355469 C 28.5 19.355469 30.410156 19.554688 32.328125 19.949219 C 34.242188 20.347656 35.914062 20.777344 37.34375 21.246094 L 37.34375 11.449219 C 37.34375 11.253906 37.414062 11.097656 37.5625 10.980469 C 37.71875 10.855469 37.894531 10.761719 38.09375 10.699219 C 38.300781 10.636719 38.65625 10.582031 39.15625 10.527344 C 39.65625 10.476562 40.085938 10.449219 40.453125 10.449219 C 40.847656 10.449219 41.296875 10.476562 41.796875 10.527344 C 42.296875 10.582031 42.644531 10.636719 42.84375 10.699219 C 43.007812 10.761719 43.164062 10.855469 43.3125 10.980469 C 43.46875 11.097656 43.546875 11.253906 43.546875 11.449219 L 43.546875 45.246094 L 41.5 45.996094 C 40.800781 46.238281 39.914062 46.507812 38.84375 46.808594 C 37.78125 47.101562 36.582031 47.394531 35.25 47.683594 C 33.914062 47.964844 32.515625 48.195312 31.046875 48.371094 C 29.578125 48.558594 28.09375 48.652344 26.59375 48.652344 C 24.425781 48.652344 22.453125 48.355469 20.671875 47.761719 C 18.890625 47.160156 17.359375 46.246094 16.078125 45.027344 C 14.796875 43.808594 13.796875 42.285156 13.078125 40.449219 C 12.359375 38.617188 12 36.464844 12 33.996094 Z M 37.453125 26.855469 C 36.953125 26.722656 36.300781 26.570312 35.5 26.402344 C 34.695312 26.238281 33.820312 26.085938 32.875 25.949219 C 31.925781 25.816406 30.914062 25.707031 29.84375 25.621094 C 28.78125 25.539062 27.695312 25.496094 26.59375 25.496094 C 24.59375 25.496094 23.039062 25.867188 21.9375 26.605469 C 20.84375 27.335938 20.035156 28.183594 19.515625 29.152344 C 19.003906 30.121094 18.691406 31.074219 18.578125 32.011719 C 18.460938 32.941406 18.40625 33.601562 18.40625 33.996094 C 18.40625 34.402344 18.460938 35.066406 18.578125 35.980469 C 18.691406 36.898438 19.003906 37.839844 19.515625 38.808594 C 20.035156 39.769531 20.84375 40.617188 21.9375 41.355469 C 23.039062 42.085938 24.59375 42.449219 26.59375 42.449219 C 27.632812 42.449219 28.660156 42.394531 29.671875 42.277344 C 30.691406 42.164062 31.648438 42.035156 32.546875 41.886719 C 33.453125 41.730469 34.28125 41.570312 35.03125 41.402344 C 35.78125 41.238281 36.40625 41.085938 36.90625 40.949219 C 37.070312 40.917969 37.203125 40.855469 37.296875 40.761719 C 37.398438 40.660156 37.453125 40.472656 37.453125 40.199219 Z M 46.550781 48.199219 "/>
</g>
</svg>
