<?xml version="1.0" encoding="UTF-8"?>
<svg xmlns="http://www.w3.org/2000/svg" xmlns:xlink="http://www.w3.org/1999/xlink" width="60pt" height="80pt" viewBox="0 0 60 80" version="1.1">
<g id="surface28541">
<path style="fill:none;stroke-width:1;stroke-linecap:butt;stroke-linejoin:miter;stroke:rgb(0%,0%,0%);stroke-opacity:1;stroke-miterlimit:10;" d="M 41.59375 27.496094 C 40.757812 27.695312 39.5 27.941406 37.8125 28.230469 C 36.132812 28.511719 34.226562 28.707031 32.09375 28.808594 C 29.96875 28.902344 27.710938 28.824219 25.328125 28.574219 C 22.941406 28.324219 20.648438 27.753906 18.453125 26.855469 C 18.484375 27.449219 18.613281 28.117188 18.84375 28.855469 C 19.082031 29.585938 19.492188 30.285156 20.078125 30.949219 C 20.660156 31.617188 21.472656 32.210938 22.515625 32.730469 C 23.566406 33.242188 24.945312 33.566406 26.65625 33.699219 C 27.945312 33.835938 29.1875 33.878906 30.375 33.824219 C 31.5625 33.773438 32.675781 33.683594 33.71875 33.558594 C 34.769531 33.425781 35.753906 33.257812 36.671875 33.058594 C 37.585938 32.851562 38.429688 32.664062 39.203125 32.496094 L 39.90625 37.746094 C 38.832031 38.082031 37.785156 38.382812 36.765625 38.652344 C 35.753906 38.914062 34.722656 39.136719 33.671875 39.324219 C 32.617188 39.511719 31.519531 39.652344 30.375 39.746094 C 29.226562 39.847656 27.988281 39.902344 26.65625 39.902344 L 26.59375 39.902344 C 24.425781 39.902344 22.453125 39.605469 20.671875 39.011719 C 18.890625 38.410156 17.359375 37.496094 16.078125 36.277344 C 14.796875 35.058594 13.796875 33.535156 13.078125 31.699219 C 12.359375 29.867188 12 27.714844 12 25.246094 C 12 22.914062 12.363281 20.867188 13.09375 19.105469 C 13.832031 17.335938 14.847656 15.835938 16.140625 14.605469 C 17.441406 13.367188 18.984375 12.414062 20.765625 11.746094 C 22.554688 11.082031 24.5 10.699219 26.59375 10.605469 C 28.800781 10.503906 30.84375 10.714844 32.71875 11.246094 C 34.601562 11.777344 36.238281 12.554688 37.625 13.574219 C 39.007812 14.597656 40.109375 15.816406 40.921875 17.230469 C 41.742188 18.648438 42.171875 20.191406 42.203125 21.855469 C 42.234375 22.617188 42.210938 23.332031 42.140625 23.996094 C 42.078125 24.664062 42.015625 25.261719 41.953125 25.792969 C 41.847656 26.398438 41.726562 26.964844 41.59375 27.496094 Z M 18.90625 22.042969 C 20.195312 22.511719 21.644531 22.867188 23.25 23.105469 C 24.851562 23.335938 26.445312 23.464844 28.03125 23.496094 C 29.613281 23.527344 31.113281 23.445312 32.53125 23.246094 C 33.945312 23.050781 35.15625 22.730469 36.15625 22.292969 L 36.15625 22.152344 C 36.15625 22.082031 36.160156 22.023438 36.171875 21.980469 C 36.191406 21.929688 36.203125 21.835938 36.203125 21.699219 C 36.066406 20.097656 35.207031 18.816406 33.625 17.855469 C 32.039062 16.886719 29.695312 16.535156 26.59375 16.792969 C 25.363281 16.898438 24.304688 17.128906 23.421875 17.480469 C 22.535156 17.824219 21.789062 18.242188 21.1875 18.730469 C 20.59375 19.210938 20.113281 19.742188 19.75 20.324219 C 19.382812 20.910156 19.101562 21.480469 18.90625 22.042969 Z M 44.25 39.449219 "/>
</g>
</svg>
