<?xml version="1.0" encoding="UTF-8"?>
<svg xmlns="http://www.w3.org/2000/svg" xmlns:xlink="http://www.w3.org/1999/xlink" width="60pt" height="80pt" viewBox="0 0 60 80" version="1.1">
<g id="surface28546">
<path style="fill:none;stroke-width:1;stroke-linecap:butt;stroke-linejoin:miter;stroke:rgb(0%,0%,0%);stroke-opacity:1;stroke-miterlimit:10;" d="M 19.09375 46.648438 C 19.09375 46.847656 19.019531 47.007812 18.875 47.132812 C 18.726562 47.25 18.570312 47.320312 18.40625 47.351562 C 18.195312 47.414062 17.84375 47.472656 17.34375 47.523438 C 16.84375 47.578125 16.410156 47.601562 16.046875 47.601562 C 15.679688 47.601562 15.25 47.578125 14.75 47.523438 C 14.25 47.472656 13.898438 47.414062 13.703125 47.351562 C 13.535156 47.320312 13.375 47.25 13.21875 47.132812 C 13.070312 47.007812 13 46.847656 13 46.648438 L 13 20.101562 C 13 17.769531 13.398438 15.9375 14.203125 14.601562 C 15.003906 13.269531 16.035156 12.265625 17.296875 11.585938 C 18.566406 10.898438 19.992188 10.46875 21.578125 10.289062 C 23.160156 10.101562 24.734375 10.007812 26.296875 10.007812 C 27.066406 10.007812 27.804688 10.066406 28.515625 10.179688 C 29.234375 10.296875 29.878906 10.421875 30.453125 10.554688 C 31.085938 10.691406 31.6875 10.859375 32.25 11.054688 L 31.703125 15.101562 L 26.296875 15.101562 C 24.398438 15.101562 22.953125 15.253906 21.953125 15.554688 C 20.953125 15.859375 20.242188 16.242188 19.828125 16.710938 C 19.410156 17.171875 19.179688 17.703125 19.140625 18.304688 C 19.109375 18.898438 19.09375 19.5 19.09375 20.101562 L 19.09375 22.054688 L 26.75 22.054688 L 26.75 27.398438 L 19.09375 27.398438 Z M 29.25 47.601562 "/>
</g>
</svg>
