<?xml version="1.0" encoding="UTF-8"?>
<svg xmlns="http://www.w3.org/2000/svg" xmlns:xlink="http://www.w3.org/1999/xlink" width="60pt" height="80pt" viewBox="0 0 60 80" version="1.1">
<g id="surface38441">
<path style="fill:none;stroke-width:1;stroke-linecap:butt;stroke-linejoin:miter;stroke:rgb(0%,0%,0%);stroke-opacity:1;stroke-miterlimit:10;" d="M 28.453125 15.148438 L 25.578125 22.351562 L 31.359375 22.351562 Z M 24.890625 24.070312 L 22.078125 31.101562 L 23.890625 31.101562 C 24.578125 31.101562 24.78125 31.441406 24.5 32.117188 L 24.09375 33.164062 L 11.21875 33.164062 L 11.640625 32.117188 C 11.910156 31.441406 12.390625 31.101562 13.078125 31.101562 L 14.890625 31.101562 L 19.40625 19.789062 L 22.46875 19.789062 L 22.890625 18.773438 C 23.171875 18.066406 22.957031 17.710938 22.25 17.710938 L 20.234375 17.710938 L 21.28125 15.148438 L 21.25 15.148438 C 20.757812 15.929688 20.066406 16.429688 19.171875 16.648438 C 18.285156 16.867188 17.441406 16.742188 16.640625 16.273438 C 15.804688 15.804688 15.265625 15.113281 15.015625 14.195312 C 14.773438 13.269531 14.894531 12.394531 15.375 11.570312 C 15.863281 10.738281 16.566406 10.203125 17.484375 9.960938 C 18.398438 9.710938 19.265625 9.820312 20.078125 10.289062 C 20.617188 10.601562 21.046875 11.03125 21.359375 11.570312 L 29.78125 11.570312 L 35.6875 15.148438 L 36.703125 17.710938 L 34.65625 17.710938 C 33.988281 17.710938 33.785156 18.066406 34.046875 18.773438 L 34.46875 19.789062 L 37.546875 19.789062 L 42.0625 31.101562 L 43.859375 31.101562 C 44.554688 31.101562 45.035156 31.441406 45.296875 32.117188 L 45.71875 33.164062 L 32.859375 33.164062 L 32.4375 32.117188 C 32.175781 31.441406 32.378906 31.101562 33.046875 31.101562 L 34.859375 31.101562 L 32.796875 25.960938 L 27.546875 25.960938 Z M 46.9375 33.585938 "/>
</g>
</svg>
