<?xml version="1.0" encoding="UTF-8"?>
<svg xmlns="http://www.w3.org/2000/svg" xmlns:xlink="http://www.w3.org/1999/xlink" width="60pt" height="80pt" viewBox="0 0 60 80" version="1.1">
<g id="surface38446">
<path style="fill:none;stroke-width:1;stroke-linecap:butt;stroke-linejoin:miter;stroke:rgb(0%,0%,0%);stroke-opacity:1;stroke-miterlimit:10;" d="M 27.875 33.164062 L 15 33.164062 L 15 32.117188 C 15 31.441406 15.34375 31.101562 16.03125 31.101562 L 17.84375 31.101562 L 17.84375 25.960938 L 11.921875 22.351562 L 17.84375 22.351562 L 17.84375 19.789062 L 20.890625 19.789062 L 20.890625 18.773438 C 20.890625 18.066406 20.546875 17.710938 19.859375 17.710938 L 17.84375 17.710938 L 17.84375 15.148438 C 17.351562 15.929688 16.660156 16.429688 15.765625 16.648438 C 14.867188 16.867188 14.015625 16.742188 13.203125 16.273438 C 12.367188 15.804688 11.828125 15.113281 11.578125 14.195312 C 11.335938 13.269531 11.453125 12.394531 11.921875 11.570312 C 12.410156 10.738281 13.113281 10.203125 14.03125 9.960938 C 14.957031 9.710938 15.835938 9.820312 16.671875 10.289062 C 17.203125 10.601562 17.613281 11.03125 17.90625 11.570312 L 30.4375 11.570312 L 35.828125 16.960938 L 35.828125 19.664062 L 33.140625 22.351562 L 35.828125 25.070312 L 35.828125 27.757812 L 30.4375 33.164062 Z M 24.421875 29.554688 L 28.109375 29.554688 L 30.4375 27.242188 L 30.4375 26.085938 L 29.28125 24.914062 L 24.421875 24.914062 Z M 24.421875 15.148438 L 24.421875 19.789062 L 29.28125 19.789062 L 30.4375 18.648438 L 30.4375 17.476562 L 28.109375 15.148438 Z M 37.050781 33.585938 "/>
</g>
</svg>
