<?xml version="1.0" encoding="UTF-8"?>
<svg xmlns="http://www.w3.org/2000/svg" xmlns:xlink="http://www.w3.org/1999/xlink" width="60pt" height="80pt" viewBox="0 0 60 80" version="1.1">
<g id="surface38581">
<path style="fill:none;stroke-width:1;stroke-linecap:butt;stroke-linejoin:miter;stroke:rgb(0%,0%,0%);stroke-opacity:1;stroke-miterlimit:10;" d="M 30.828125 11.570312 L 36.703125 15.148438 L 26.0625 15.148438 L 21.203125 22.351562 L 11.21875 22.351562 L 21.203125 22.351562 L 26.0625 29.554688 L 36.703125 29.554688 L 30.828125 33.164062 L 16.421875 33.164062 L 16.59375 33.054688 L 16.59375 32.117188 C 16.59375 31.441406 16.9375 31.101562 17.625 31.101562 L 19.421875 31.101562 L 19.421875 30.382812 L 14.90625 23.601562 L 13.09375 23.601562 C 12.414062 23.601562 11.929688 23.398438 11.640625 22.992188 L 11.21875 22.351562 L 11.640625 21.742188 C 11.929688 21.335938 12.414062 21.132812 13.09375 21.132812 L 14.90625 21.132812 L 18.015625 16.445312 C 17.828125 16.363281 17.71875 16.304688 17.6875 16.273438 C 16.863281 15.804688 16.328125 15.113281 16.078125 14.195312 C 15.835938 13.269531 15.953125 12.394531 16.421875 11.570312 C 16.910156 10.738281 17.613281 10.203125 18.53125 9.960938 C 19.445312 9.710938 20.316406 9.820312 21.140625 10.289062 C 21.671875 10.601562 22.09375 11.03125 22.40625 11.570312 Z M 37.929688 33.585938 "/>
</g>
</svg>
