<?xml version="1.0" encoding="UTF-8"?>
<svg xmlns="http://www.w3.org/2000/svg" xmlns:xlink="http://www.w3.org/1999/xlink" width="60pt" height="80pt" viewBox="0 0 60 80" version="1.1">
<g id="surface38586">
<path style="fill:none;stroke-width:1;stroke-linecap:butt;stroke-linejoin:miter;stroke:rgb(0%,0%,0%);stroke-opacity:1;stroke-miterlimit:10;" d="M 27.875 33.164062 L 15 33.164062 L 15 32.117188 C 15 31.441406 15.34375 31.101562 16.03125 31.101562 L 17.84375 31.101562 L 17.84375 25.960938 L 11.953125 22.351562 L 17.84375 22.351562 L 17.84375 19.789062 L 20.90625 19.789062 L 20.90625 18.773438 C 20.90625 18.066406 20.554688 17.710938 19.859375 17.710938 L 17.84375 17.710938 L 17.84375 15.148438 C 17.351562 15.929688 16.660156 16.429688 15.765625 16.648438 C 14.867188 16.867188 14.015625 16.742188 13.203125 16.273438 C 12.390625 15.804688 11.851562 15.113281 11.59375 14.195312 C 11.34375 13.269531 11.460938 12.394531 11.953125 11.570312 C 12.441406 10.738281 13.140625 10.203125 14.046875 9.960938 C 14.960938 9.710938 15.835938 9.820312 16.671875 10.289062 C 17.234375 10.632812 17.644531 11.0625 17.90625 11.570312 L 30.4375 11.570312 L 35.828125 16.960938 L 35.828125 27.757812 L 30.4375 33.164062 Z M 24.453125 15.148438 L 24.453125 29.554688 L 27.4375 29.554688 L 30.4375 26.554688 L 30.4375 18.148438 L 27.4375 15.148438 Z M 37.050781 33.585938 "/>
</g>
</svg>
