<?xml version="1.0" encoding="UTF-8"?>
<svg xmlns="http://www.w3.org/2000/svg" xmlns:xlink="http://www.w3.org/1999/xlink" width="60pt" height="80pt" viewBox="0 0 60 80" version="1.1">
<g id="surface38591">
<path style="fill:none;stroke-width:1;stroke-linecap:butt;stroke-linejoin:miter;stroke:rgb(0%,0%,0%);stroke-opacity:1;stroke-miterlimit:10;" d="M 25.015625 15.148438 L 25.015625 19.789062 L 26.328125 19.789062 L 32.21875 23.382812 L 25.015625 23.382812 L 25.015625 29.554688 L 35.828125 29.554688 L 29.921875 33.164062 L 14.984375 33.164062 L 14.984375 32.117188 C 14.984375 31.441406 15.320312 31.101562 16 31.101562 L 17.8125 31.101562 L 17.8125 23.382812 L 11.921875 19.789062 L 20.890625 19.789062 L 20.890625 18.773438 C 20.890625 18.066406 20.539062 17.710938 19.84375 17.710938 L 17.8125 17.710938 L 17.8125 15.148438 C 17.320312 15.929688 16.628906 16.429688 15.734375 16.648438 C 14.835938 16.867188 13.984375 16.742188 13.171875 16.273438 C 12.359375 15.804688 11.828125 15.113281 11.578125 14.195312 C 11.335938 13.269531 11.453125 12.394531 11.921875 11.570312 C 12.410156 10.738281 13.109375 10.203125 14.015625 9.960938 C 14.929688 9.710938 15.804688 9.820312 16.640625 10.289062 C 17.191406 10.625 17.613281 11.050781 17.90625 11.570312 L 29.921875 11.570312 L 35.828125 15.148438 Z M 37.050781 33.585938 "/>
</g>
</svg>
