<?xml version="1.0" encoding="UTF-8"?>
<svg xmlns="http://www.w3.org/2000/svg" xmlns:xlink="http://www.w3.org/1999/xlink" width="60pt" height="80pt" viewBox="0 0 60 80" version="1.1">
<g id="surface35601">
<path style="fill:none;stroke-width:1;stroke-linecap:butt;stroke-linejoin:miter;stroke:rgb(0%,0%,0%);stroke-opacity:1;stroke-miterlimit:10;" d="M 22.203125 41.199219 C 22.003906 41.304688 21.753906 41.492188 21.453125 41.761719 C 21.148438 42.023438 20.875 42.230469 20.625 42.386719 C 20.375 42.535156 20.113281 42.605469 19.84375 42.605469 C 19.007812 42.636719 18.101562 42.097656 17.125 40.980469 C 16.144531 39.855469 15.335938 38.695312 14.703125 37.496094 C 14.097656 36.300781 13.664062 35.269531 13.40625 34.402344 C 12.40625 31.207031 12.171875 28.054688 12.703125 24.949219 C 13.203125 21.847656 14.382812 18.898438 16.25 16.105469 L 19.75 12.605469 L 20.796875 11.605469 C 21.128906 11.273438 21.320312 11.074219 21.375 11.011719 C 21.425781 10.941406 21.554688 10.832031 21.765625 10.683594 C 21.984375 10.527344 22.128906 10.433594 22.203125 10.402344 L 22.90625 10.042969 L 24.15625 9.449219 L 20.65625 12.949219 L 19.046875 13.746094 C 17.484375 16.414062 16.507812 19.191406 16.125 22.074219 C 15.738281 24.960938 16 27.902344 16.90625 30.902344 C 17.195312 31.738281 17.648438 32.753906 18.265625 33.949219 C 18.890625 35.148438 19.691406 36.308594 20.671875 37.433594 C 21.660156 38.550781 22.550781 39.105469 23.34375 39.105469 C 23.476562 39.105469 23.628906 39.070312 23.796875 38.996094 C 24.796875 37.332031 25.5 35.398438 25.90625 33.199219 C 26.132812 32.167969 26.195312 30.789062 26.09375 29.058594 C 26 27.320312 25.804688 25.617188 25.515625 23.949219 C 25.234375 22.285156 24.726562 20.699219 24 19.199219 C 23.269531 17.699219 22.421875 16.632812 21.453125 15.996094 C 21.210938 15.863281 20.957031 15.761719 20.6875 15.699219 C 20.425781 15.636719 20.117188 15.589844 19.765625 15.558594 C 19.421875 15.519531 19.164062 15.464844 19 15.402344 L 22.5 11.902344 C 22.695312 11.933594 22.96875 11.976562 23.3125 12.027344 C 23.664062 12.082031 23.976562 12.136719 24.25 12.199219 C 24.519531 12.261719 24.753906 12.363281 24.953125 12.496094 C 25.953125 13.101562 26.804688 14.152344 27.515625 15.652344 C 28.234375 17.152344 28.734375 18.746094 29.015625 20.433594 C 29.304688 22.113281 29.507812 23.808594 29.625 25.527344 C 29.738281 27.246094 29.664062 28.636719 29.40625 29.699219 C 28.90625 32.667969 27.671875 35.335938 25.703125 37.699219 Z M 24.699219 43.199219 "/>
</g>
</svg>
