<?xml version="1.0" encoding="UTF-8"?>
<svg xmlns="http://www.w3.org/2000/svg" xmlns:xlink="http://www.w3.org/1999/xlink" width="60pt" height="80pt" viewBox="0 0 60 80" version="1.1">
<g id="surface35606">
<path style="fill:none;stroke-width:1;stroke-linecap:butt;stroke-linejoin:miter;stroke:rgb(0%,0%,0%);stroke-opacity:1;stroke-miterlimit:10;" d="M 21.046875 12.503906 L 24.546875 9.003906 C 24.316406 10.433594 24.191406 12.015625 24.171875 13.753906 C 24.160156 15.484375 24.195312 16.925781 24.28125 18.082031 C 24.363281 19.230469 24.503906 20.855469 24.703125 22.957031 C 24.929688 24.917969 25.082031 26.417969 25.15625 27.457031 C 25.320312 29.550781 25.351562 33.167969 25.25 38.300781 L 21.75 41.800781 C 21.851562 36.636719 21.820312 33.019531 21.65625 30.957031 C 21.550781 30.082031 21.398438 28.597656 21.203125 26.503906 C 21.003906 24.402344 20.863281 22.765625 20.78125 21.597656 C 20.695312 20.433594 20.660156 18.996094 20.671875 17.285156 C 20.691406 15.566406 20.816406 13.972656 21.046875 12.503906 Z M 20.449219 42.800781 "/>
</g>
</svg>
