<?xml version="1.0" encoding="UTF-8"?>
<svg xmlns="http://www.w3.org/2000/svg" xmlns:xlink="http://www.w3.org/1999/xlink" width="60pt" height="80pt" viewBox="0 0 60 80" version="1.1">
<g id="surface35611">
<path style="fill:none;stroke-width:1;stroke-linecap:butt;stroke-linejoin:miter;stroke:rgb(0%,0%,0%);stroke-opacity:1;stroke-miterlimit:10;" d="M 14.15625 42.703125 L 14.5 43.34375 C 14.664062 43.585938 14.753906 43.730469 14.765625 43.78125 C 14.785156 43.824219 14.851562 43.898438 14.96875 44 C 15.09375 44.105469 15.160156 44.15625 15.171875 44.15625 C 15.191406 44.15625 15.273438 44.132812 15.421875 44.078125 C 15.578125 44.027344 15.695312 43.96875 15.78125 43.90625 C 15.863281 43.835938 16.019531 43.714844 16.25 43.546875 L 16.90625 43.15625 L 17.34375 42.546875 C 16.28125 42.453125 15.21875 42.507812 14.15625 42.703125 Z M 11.65625 43.59375 L 13.5 41.75 C 13.664062 41.585938 13.875 41.359375 14.125 41.078125 C 14.375 40.796875 14.613281 40.546875 14.84375 40.328125 C 15.082031 40.109375 15.316406 39.949219 15.546875 39.84375 C 16.546875 39.3125 17.8125 39.015625 19.34375 38.953125 C 20.582031 36.382812 21.742188 33.605469 22.828125 30.625 C 23.910156 27.648438 24.46875 25.574219 24.5 24.40625 C 24.5 23.367188 24.296875 22.261719 23.890625 21.09375 C 23.492188 19.929688 22.953125 18.867188 22.265625 17.90625 C 21.585938 16.9375 20.707031 16.230469 19.625 15.78125 C 18.539062 15.324219 17.398438 15.28125 16.203125 15.65625 C 15.835938 15.78125 15.4375 15.996094 15 16.296875 L 13.703125 18.296875 L 10.203125 21.796875 L 10.953125 20.65625 L 11.40625 19.953125 C 11.4375 19.882812 11.535156 19.730469 11.703125 19.5 C 11.867188 19.273438 11.984375 19.125 12.046875 19.0625 C 12.117188 18.992188 12.320312 18.75 12.65625 18.34375 L 13.703125 17.203125 L 17.203125 13.703125 C 17.398438 13.570312 17.65625 13.386719 17.96875 13.15625 C 18.289062 12.917969 18.59375 12.710938 18.875 12.53125 C 19.15625 12.34375 19.429688 12.21875 19.703125 12.15625 C 20.898438 11.75 22.039062 11.777344 23.125 12.234375 C 24.207031 12.683594 25.097656 13.398438 25.796875 14.375 C 26.492188 15.355469 27.039062 16.421875 27.4375 17.578125 C 27.84375 18.726562 28.03125 19.835938 28 20.90625 C 28 22.40625 27.128906 25.324219 25.390625 29.65625 C 23.660156 33.992188 22.265625 36.953125 21.203125 38.546875 L 20.90625 39 C 22.070312 39.136719 23.003906 39.417969 23.703125 39.84375 C 25.398438 40.84375 26.234375 41.449219 26.203125 41.65625 C 26.203125 41.6875 25.9375 41.703125 25.40625 41.703125 C 25 41.734375 25.3125 42.070312 26.34375 42.703125 L 27.59375 43.453125 C 28.03125 43.683594 28.40625 43.867188 28.71875 44 C 29.039062 44.136719 29.375 44.21875 29.71875 44.25 C 30.070312 44.28125 30.335938 44.296875 30.515625 44.296875 C 30.703125 44.296875 31.050781 44.265625 31.5625 44.203125 C 32.082031 44.132812 32.476562 44.09375 32.75 44.09375 L 29.25 47.59375 C 28.945312 47.632812 28.546875 47.675781 28.046875 47.71875 C 27.546875 47.769531 27.195312 47.796875 27 47.796875 C 26.800781 47.796875 26.523438 47.78125 26.171875 47.75 C 25.828125 47.71875 25.492188 47.640625 25.171875 47.515625 C 24.859375 47.398438 24.5 47.210938 24.09375 46.953125 C 22.5 46.046875 21.6875 45.511719 21.65625 45.34375 C 21.65625 45.3125 21.910156 45.292969 22.421875 45.28125 C 22.941406 45.261719 22.519531 44.820312 21.15625 43.953125 L 20.203125 43.34375 C 19.566406 42.980469 18.75 42.730469 17.75 42.59375 L 14.09375 46.25 C 13.726562 46.445312 13.378906 46.65625 13.046875 46.875 C 12.710938 47.09375 12.476562 47.25 12.34375 47.34375 C 12.21875 47.445312 12.070312 47.53125 11.90625 47.59375 C 11.738281 47.664062 11.632812 47.691406 11.59375 47.671875 C 11.5625 47.660156 11.488281 47.585938 11.375 47.453125 C 11.257812 47.316406 11.160156 47.171875 11.078125 47.015625 C 10.992188 46.867188 10.851562 46.628906 10.65625 46.296875 L 10 45.25 Z M 11.65625 43.59375 C 11.488281 43.730469 11.035156 44.183594 10.296875 44.953125 Z M 27.851562 46.25 "/>
</g>
</svg>
