<?xml version="1.0" encoding="UTF-8"?>
<svg xmlns="http://www.w3.org/2000/svg" xmlns:xlink="http://www.w3.org/1999/xlink" width="60pt" height="80pt" viewBox="0 0 60 80" version="1.1">
<g id="surface35341">
<path style="fill:none;stroke-width:1;stroke-linecap:butt;stroke-linejoin:miter;stroke:rgb(0%,0%,0%);stroke-opacity:1;stroke-miterlimit:10;" d="M 16.453125 25.246094 C 15.710938 26.714844 15.484375 28.027344 15.765625 29.183594 C 16.054688 30.332031 16.785156 31.039062 17.953125 31.308594 C 19.117188 31.570312 20.6875 31.285156 22.65625 30.449219 C 22.445312 29.511719 22.285156 28.011719 22.171875 25.949219 C 22.054688 23.886719 21.984375 22.585938 21.953125 22.042969 L 19.546875 24.449219 C 19.148438 24.554688 18.765625 24.636719 18.390625 24.699219 C 18.023438 24.761719 17.773438 24.804688 17.640625 24.824219 C 17.515625 24.847656 17.367188 24.886719 17.203125 24.949219 L 16.84375 25.042969 C 16.75 25.085938 16.617188 25.152344 16.453125 25.246094 Z M 18.046875 22.902344 L 19.296875 22.152344 C 19.734375 21.882812 19.984375 21.726562 20.046875 21.683594 C 20.117188 21.632812 20.28125 21.554688 20.53125 21.449219 C 20.78125 21.347656 20.9375 21.292969 21 21.292969 C 21.0625 21.292969 21.34375 21.246094 21.84375 21.152344 C 21.675781 19.882812 21.4375 18.824219 21.125 17.980469 C 20.8125 17.128906 20.34375 16.394531 19.71875 15.777344 C 19.101562 15.164062 18.253906 14.871094 17.171875 14.902344 C 16.085938 14.933594 14.78125 15.285156 13.25 15.949219 L 10 19.199219 L 11.203125 16.996094 L 14.703125 13.496094 C 16.628906 12.402344 18.273438 11.742188 19.640625 11.511719 C 21.015625 11.273438 22.054688 11.398438 22.765625 11.886719 C 23.484375 12.367188 24.066406 13.089844 24.515625 14.058594 C 24.972656 15.019531 25.25 16.132812 25.34375 17.402344 L 25.703125 21.355469 C 25.796875 22.753906 25.875 24.058594 25.9375 25.277344 C 26.007812 26.496094 26.21875 27.589844 26.5625 28.558594 C 26.914062 29.519531 27.394531 30.199219 28 30.605469 C 28.195312 30.699219 28.414062 30.761719 28.65625 30.792969 C 28.613281 30.535156 28.59375 30.253906 28.59375 29.949219 L 32.09375 26.449219 L 32.203125 27.746094 C 32.234375 28.183594 32.265625 28.441406 32.296875 28.511719 C 32.328125 28.574219 32.3125 28.722656 32.25 28.949219 C 32.1875 29.179688 32.113281 29.316406 32.03125 29.355469 C 31.945312 29.386719 31.753906 29.570312 31.453125 29.902344 L 30.546875 30.949219 L 27.046875 34.449219 L 26.203125 34.449219 C 25.835938 34.449219 25.507812 34.421875 25.21875 34.371094 C 24.9375 34.316406 24.695312 34.230469 24.5 34.105469 C 23.632812 33.605469 23.019531 32.472656 22.65625 30.699219 L 19.65625 33.699219 C 18.25 34.425781 16.988281 34.84375 15.875 34.949219 C 14.757812 35.050781 13.914062 34.859375 13.34375 34.371094 C 12.78125 33.894531 12.398438 33.261719 12.203125 32.480469 C 12.003906 31.691406 12.113281 30.753906 12.53125 29.667969 C 12.945312 28.585938 13.617188 27.496094 14.546875 26.402344 Z M 27.398438 33.949219 "/>
</g>
</svg>
