<?xml version="1.0" encoding="UTF-8"?>
<svg xmlns="http://www.w3.org/2000/svg" xmlns:xlink="http://www.w3.org/1999/xlink" width="60pt" height="80pt" viewBox="0 0 60 80" version="1.1">
<g id="surface35471">
<path style="fill:none;stroke-width:1;stroke-linecap:butt;stroke-linejoin:miter;stroke:rgb(0%,0%,0%);stroke-opacity:1;stroke-miterlimit:10;" d="M 32.703125 34.246094 L 31 29.902344 L 29.15625 25.152344 C 28.6875 23.957031 28.082031 22.566406 27.34375 20.980469 C 26.613281 19.398438 25.898438 18.023438 25.203125 16.855469 L 23.5 20.449219 L 21.40625 24.699219 L 19.59375 28.292969 L 18.546875 30.652344 C 19.742188 31.914062 21.144531 32.898438 22.75 33.605469 C 24.351562 34.304688 25.976562 34.691406 27.625 34.761719 C 29.269531 34.824219 30.960938 34.652344 32.703125 34.246094 Z M 44.703125 36.746094 C 44.734375 37.113281 44.734375 37.496094 44.703125 37.902344 L 41.5 41.105469 C 42.832031 42.773438 44.25 43.457031 45.75 43.152344 C 47.113281 40.019531 47.113281 37.964844 45.75 36.996094 C 45.476562 36.832031 45.128906 36.746094 44.703125 36.746094 Z M 38.59375 26.542969 L 35.796875 29.355469 L 35.65625 29.199219 L 37.046875 32.652344 L 37.15625 32.605469 C 38.945312 30.066406 39.425781 28.042969 38.59375 26.542969 Z M 10.546875 26.246094 L 14.046875 22.746094 C 14.210938 23.050781 14.460938 23.585938 14.796875 24.355469 L 15.59375 26.042969 C 15.800781 26.480469 16.070312 27.003906 16.40625 27.605469 C 16.738281 28.199219 17.050781 28.730469 17.34375 29.199219 C 20.644531 22.566406 22.847656 17.800781 23.953125 14.902344 L 27.453125 11.402344 C 28.378906 12.664062 29.300781 14.222656 30.21875 16.074219 C 31.132812 17.929688 31.863281 19.523438 32.40625 20.855469 L 34.546875 26.292969 C 34.710938 25.835938 34.863281 25.371094 35 24.902344 L 38.5 21.402344 C 38.695312 21.433594 38.976562 21.445312 39.34375 21.433594 C 39.71875 21.414062 40.035156 21.429688 40.296875 21.480469 C 40.566406 21.523438 40.800781 21.628906 41 21.792969 C 41.601562 22.230469 42.035156 22.726562 42.296875 23.277344 C 42.566406 23.832031 42.632812 24.425781 42.5 25.058594 C 42.363281 25.683594 42.195312 26.269531 42 26.808594 C 41.800781 27.339844 41.457031 27.941406 40.96875 28.605469 C 40.488281 29.273438 40.097656 29.789062 39.796875 30.152344 L 38.65625 31.542969 C 38.488281 31.679688 38.367188 31.800781 38.296875 31.902344 L 37.203125 32.996094 C 37.835938 34.464844 38.4375 35.785156 39 36.949219 C 39.9375 38.753906 40.671875 40.003906 41.203125 40.699219 C 41.203125 40.472656 41.191406 40.207031 41.171875 39.902344 C 41.160156 39.601562 41.15625 39.417969 41.15625 39.355469 C 41.15625 39.285156 41.171875 39.164062 41.203125 38.996094 C 41.234375 38.832031 41.253906 38.730469 41.265625 38.699219 C 41.285156 38.667969 41.351562 38.582031 41.46875 38.433594 C 41.59375 38.277344 41.710938 38.160156 41.828125 38.074219 C 41.941406 37.992188 42.109375 37.824219 42.328125 37.574219 C 42.546875 37.324219 42.785156 37.066406 43.046875 36.792969 L 46.546875 33.292969 C 46.742188 33.292969 47.039062 33.277344 47.4375 33.246094 C 47.84375 33.214844 48.195312 33.210938 48.5 33.230469 C 48.800781 33.242188 49.050781 33.332031 49.25 33.496094 C 49.582031 33.695312 49.835938 33.957031 50.015625 34.277344 C 50.203125 34.589844 50.300781 34.949219 50.3125 35.355469 C 50.332031 35.753906 50.328125 36.117188 50.296875 36.449219 C 50.265625 36.785156 50.164062 37.199219 50 37.699219 C 49.832031 38.199219 49.695312 38.574219 49.59375 38.824219 C 49.5 39.074219 49.34375 39.445312 49.125 39.933594 C 48.90625 40.414062 48.78125 40.699219 48.75 40.792969 L 48.59375 40.949219 L 46.703125 42.855469 C 46.929688 42.722656 47.15625 42.554688 47.375 42.355469 C 47.59375 42.148438 47.828125 41.898438 48.078125 41.605469 C 48.328125 41.304688 48.5 41.085938 48.59375 40.949219 L 46.703125 42.855469 L 45.25 44.292969 C 45.082031 44.460938 44.859375 44.710938 44.578125 45.042969 C 44.296875 45.378906 44.03125 45.667969 43.78125 45.917969 C 43.53125 46.167969 43.269531 46.34375 43 46.449219 C 42.53125 46.644531 42.085938 46.761719 41.671875 46.792969 C 41.253906 46.832031 40.851562 46.769531 40.46875 46.605469 C 40.09375 46.4375 39.742188 46.25 39.421875 46.042969 C 39.109375 45.84375 38.785156 45.546875 38.453125 45.152344 L 37.59375 44.152344 C 37.363281 43.882812 37.113281 43.511719 36.84375 43.042969 L 36.203125 41.902344 C 36.066406 41.632812 35.898438 41.285156 35.703125 40.855469 C 35.597656 40.691406 35.53125 40.554688 35.5 40.449219 C 34.863281 39.222656 34.195312 37.789062 33.5 36.152344 C 31.664062 37.121094 29.75 37.773438 27.75 38.105469 C 25.75 38.441406 23.738281 38.386719 21.71875 37.949219 C 19.707031 37.511719 17.914062 36.679688 16.34375 35.449219 C 15.34375 37.585938 14.34375 39.367188 13.34375 40.792969 L 9.84375 44.292969 L 7.546875 45.402344 L 11.046875 41.902344 L 11.40625 41.699219 C 12.03125 40.597656 13.226562 38.082031 15 34.152344 C 14.800781 33.957031 14.601562 33.722656 14.40625 33.449219 C 14 32.980469 13.59375 32.410156 13.1875 31.730469 C 12.789062 31.042969 12.484375 30.488281 12.265625 30.058594 C 12.054688 29.621094 11.742188 28.945312 11.328125 28.027344 C 10.910156 27.113281 10.648438 26.519531 10.546875 26.246094 Z M 45.449219 45.449219 "/>
</g>
</svg>
