<?xml version="1.0" encoding="UTF-8"?>
<svg xmlns="http://www.w3.org/2000/svg" xmlns:xlink="http://www.w3.org/1999/xlink" width="60pt" height="80pt" viewBox="0 0 60 80" version="1.1">
<g id="surface35476">
<path style="fill:none;stroke-width:1;stroke-linecap:butt;stroke-linejoin:miter;stroke:rgb(0%,0%,0%);stroke-opacity:1;stroke-miterlimit:10;" d="M 31.046875 46.097656 C 31.742188 45.128906 32.175781 44.449219 32.34375 44.050781 C 33.144531 41.78125 32.925781 39.597656 31.6875 37.503906 C 30.457031 35.402344 28.675781 34 26.34375 33.300781 C 24.945312 32.90625 23.265625 32.753906 21.296875 32.847656 C 20.234375 33.152344 19.164062 33.386719 18.09375 33.550781 L 18 34.847656 C 18 35.152344 17.984375 35.46875 17.953125 35.800781 C 19.347656 37.03125 19.796875 38.613281 19.296875 40.550781 C 19.234375 40.824219 19.117188 41.109375 18.953125 41.410156 C 18.785156 41.703125 18.566406 42.015625 18.296875 42.347656 L 17.75 43.207031 L 16.796875 44.144531 C 16.765625 44.519531 16.71875 44.890625 16.65625 45.253906 L 14.203125 47.707031 C 16.835938 48.800781 19.703125 49.175781 22.796875 48.832031 C 25.898438 48.480469 28.648438 47.566406 31.046875 46.097656 Z M 9.453125 38.253906 C 9.183594 38.847656 9.015625 39.378906 8.953125 39.847656 C 8.683594 41.515625 9.199219 43.183594 10.5 44.847656 C 11.269531 45.816406 12.21875 46.621094 13.34375 47.253906 C 14.007812 42.316406 14.363281 39.683594 14.40625 39.347656 C 13 38.121094 11.347656 37.753906 9.453125 38.253906 Z M 16.59375 18.597656 L 20.09375 15.097656 L 19.90625 16.207031 C 20.9375 15.332031 21.601562 14.832031 21.90625 14.707031 C 23.269531 14.042969 24.640625 13.699219 26.015625 13.675781 C 27.398438 13.65625 28.648438 13.921875 29.765625 14.472656 C 30.890625 15.027344 31.832031 15.871094 32.59375 17.003906 C 33.363281 18.140625 33.832031 19.457031 34 20.957031 C 34.164062 22.21875 34.164062 23.097656 34 23.597656 C 33.9375 23.839844 33.820312 24.082031 33.65625 24.332031 C 33.488281 24.582031 33.285156 24.855469 33.046875 25.144531 L 32.5 25.800781 L 29 29.300781 L 28.703125 29.503906 C 29.097656 29.566406 29.476562 29.667969 29.84375 29.800781 C 32.21875 30.5 34.019531 31.890625 35.25 33.972656 C 36.476562 36.058594 36.675781 38.25 35.84375 40.550781 C 35.675781 41.050781 34.660156 42.484375 32.796875 44.847656 L 29.296875 48.347656 C 27.929688 49.511719 26.234375 50.457031 24.203125 51.175781 C 22.171875 51.894531 20.09375 52.324219 17.96875 52.472656 C 15.851562 52.628906 13.785156 52.363281 11.765625 51.675781 C 9.757812 50.988281 8.167969 49.878906 7 48.347656 C 5.699219 46.714844 5.183594 45.046875 5.453125 43.347656 C 5.484375 43.015625 5.578125 42.667969 5.734375 42.300781 C 5.882812 41.9375 6.054688 41.542969 6.25 41.113281 C 6.449219 40.675781 6.601562 40.324219 6.703125 40.050781 L 10.203125 36.550781 C 10.367188 36.417969 10.59375 36.222656 10.875 35.972656 C 11.15625 35.722656 11.410156 35.515625 11.640625 35.347656 C 11.878906 35.183594 12.113281 35.050781 12.34375 34.957031 C 13.144531 34.65625 13.945312 34.519531 14.75 34.550781 C 15.144531 28.519531 15.644531 23.839844 16.25 20.503906 L 14.546875 22.207031 L 16.046875 20.003906 L 16.40625 19.644531 Z M 31.398438 49.050781 "/>
</g>
</svg>
