<?xml version="1.0" encoding="UTF-8"?>
<svg xmlns="http://www.w3.org/2000/svg" xmlns:xlink="http://www.w3.org/1999/xlink" width="60pt" height="80pt" viewBox="0 0 60 80" version="1.1">
<g id="surface35346">
<path style="fill:none;stroke-width:1;stroke-linecap:butt;stroke-linejoin:miter;stroke:rgb(0%,0%,0%);stroke-opacity:1;stroke-miterlimit:10;" d="M 12.703125 13.703125 L 16.203125 10.203125 C 16.203125 17.964844 16.269531 23.367188 16.40625 26.40625 L 19 23.796875 C 22.53125 21.039062 25.53125 20.621094 28 22.546875 C 29.894531 24.015625 30.976562 26.402344 31.25 29.703125 C 31.476562 33.039062 30.742188 35.9375 29.046875 38.40625 L 25.546875 41.90625 L 24.703125 42.453125 C 24.265625 42.714844 23.929688 42.914062 23.703125 43.046875 L 22.90625 43.5 C 22.53125 43.699219 22.1875 43.851562 21.875 43.953125 C 21.5625 44.046875 21.238281 44.132812 20.90625 44.203125 C 20.238281 44.296875 19.53125 44.359375 18.78125 44.390625 C 18.03125 44.429688 17.285156 44.3125 16.546875 44.03125 C 15.816406 43.742188 15.316406 43.296875 15.046875 42.703125 L 14.09375 43.65625 C 13.632812 40.824219 13.296875 37.632812 13.078125 34.078125 C 12.859375 30.527344 12.738281 27.601562 12.71875 25.296875 C 12.707031 22.996094 12.703125 19.78125 12.703125 15.65625 Z M 20.09375 35.546875 L 20.296875 35.34375 Z M 20.09375 35.546875 C 20 35.652344 19.816406 35.804688 19.546875 36 C 19.285156 36.199219 19.078125 36.382812 18.921875 36.546875 C 18.773438 36.714844 18.648438 36.898438 18.546875 37.09375 Z M 18.546875 37.09375 L 18.453125 37.40625 C 18.285156 38.273438 18.390625 38.980469 18.765625 39.53125 C 19.148438 40.074219 19.675781 40.421875 20.34375 40.578125 C 21.007812 40.726562 21.71875 40.824219 22.46875 40.875 C 23.21875 40.929688 23.863281 40.871094 24.40625 40.703125 C 25.101562 40.570312 25.851562 40.28125 26.65625 39.84375 C 27.25 38.449219 27.59375 36.933594 27.6875 35.296875 C 27.789062 33.664062 27.648438 32.164062 27.265625 30.796875 C 26.890625 29.433594 26.304688 28.21875 25.515625 27.15625 C 24.734375 26.085938 23.742188 25.40625 22.546875 25.125 C 21.347656 24.84375 19.984375 24.984375 18.453125 25.546875 L 18.15625 26.40625 L 16.453125 28.09375 C 16.648438 31.804688 16.945312 35.203125 17.34375 38.296875 Z M 26.351562 44.25 "/>
</g>
</svg>
