<?xml version="1.0" encoding="UTF-8"?>
<svg xmlns="http://www.w3.org/2000/svg" xmlns:xlink="http://www.w3.org/1999/xlink" width="60pt" height="80pt" viewBox="0 0 60 80" version="1.1">
<g id="surface48621">
<path style="fill:none;stroke-width:1;stroke-linecap:butt;stroke-linejoin:miter;stroke:rgb(0%,0%,0%);stroke-opacity:1;stroke-miterlimit:10;" d="M 46.703125 40.15625 C 46.703125 46.15625 44.566406 51.757812 40.296875 56.953125 C 35.796875 62.421875 30.613281 65.15625 24.75 65.15625 C 20.78125 65.15625 17.914062 63.4375 16.15625 60 C 14.988281 57.726562 14.40625 54.980469 14.40625 51.75 C 14.40625 47.6875 15.269531 43.105469 17 38 C 18.695312 33.03125 20.78125 28.867188 23.25 25.5 C 26.8125 20.605469 30.660156 18.15625 34.796875 18.15625 C 35.234375 18.15625 35.664062 18.1875 36.09375 18.25 C 38.257812 18.949219 40.5625 20.214844 43 22.046875 C 42.96875 22.621094 43.71875 24.886719 45.25 28.84375 C 45.3125 29.917969 45.578125 31.804688 46.046875 34.5 C 46.484375 36.9375 46.703125 38.824219 46.703125 40.15625 Z M 46.09375 39.546875 C 46.09375 37.914062 45.296875 34.761719 43.703125 30.09375 C 42.265625 25.929688 41.195312 23.214844 40.5 21.953125 C 38.695312 21.484375 36.195312 21.25 33 21.25 C 31.269531 21.25 29.882812 21.601562 28.84375 22.296875 C 27.976562 22.871094 27.046875 23.9375 26.046875 25.5 C 23.148438 27.46875 20.601562 31.773438 18.40625 38.40625 C 16.53125 44.03125 15.59375 48.578125 15.59375 52.046875 C 15.59375 53.746094 16.160156 55.746094 17.296875 58.046875 C 18.628906 60.785156 20.128906 62.300781 21.796875 62.59375 C 21.796875 63.09375 22.378906 63.34375 23.546875 63.34375 C 23.910156 63.34375 26.0625 63.078125 30 62.546875 C 34.0625 60.984375 37.492188 58.082031 40.296875 53.84375 C 42.429688 50.648438 44 47.03125 45 43 C 45.0625 42.730469 45.28125 42.164062 45.65625 41.296875 C 45.945312 40.601562 46.09375 40.015625 46.09375 39.546875 Z M 38.75 31.40625 C 38.75 31.9375 38.582031 32.335938 38.25 32.59375 C 38.1875 32.667969 37.785156 32.902344 37.046875 33.296875 C 36.210938 35.433594 35.25 38.183594 34.15625 41.546875 C 32.75 45.851562 32.046875 48.53125 32.046875 49.59375 C 32.046875 50.09375 31.910156 50.546875 31.640625 50.953125 C 31.378906 51.351562 31.21875 51.667969 31.15625 51.90625 C 30.945312 52.667969 30.84375 53.980469 30.84375 55.84375 C 30.507812 56.148438 30.007812 56.296875 29.34375 56.296875 C 28.644531 56.296875 28.144531 56.148438 27.84375 55.84375 C 27.84375 54.25 27.535156 51.882812 26.921875 48.734375 C 26.304688 45.578125 26 43.199219 26 41.59375 L 26 31.75 C 26.9375 31.386719 30.503906 30.4375 36.703125 28.90625 C 37.203125 29.167969 37.882812 29.296875 38.75 29.296875 Z M 35.65625 31.703125 C 34.519531 32.070312 32.785156 32.25 30.453125 32.25 C 29.710938 33.21875 28.84375 34.289062 27.84375 35.453125 L 27.84375 43.453125 C 27.84375 45.652344 28.34375 48.015625 29.34375 50.546875 C 29.914062 48.652344 31.035156 45.4375 32.703125 40.90625 C 34.234375 36.667969 35.21875 33.601562 35.65625 31.703125 Z M 51.101562 57 "/>
</g>
</svg>
