<?xml version="1.0" encoding="UTF-8"?>
<svg xmlns="http://www.w3.org/2000/svg" xmlns:xlink="http://www.w3.org/1999/xlink" width="60pt" height="80pt" viewBox="0 0 60 80" version="1.1">
<g id="surface48626">
<path style="fill:none;stroke-width:1;stroke-linecap:butt;stroke-linejoin:miter;stroke:rgb(0%,0%,0%);stroke-opacity:1;stroke-miterlimit:10;" d="M 41.90625 20.304688 C 41.40625 21.597656 40.835938 23.460938 40.203125 25.898438 C 38.796875 36.171875 37.195312 48.785156 35.40625 63.742188 L 32.546875 64.351562 C 31.984375 63.683594 31.164062 63.351562 30.09375 63.351562 C 29.53125 63.351562 27.945312 63.667969 25.34375 64.304688 C 25.34375 63.261719 25.160156 62.542969 24.796875 62.148438 C 24.796875 61.679688 25.128906 61.109375 25.796875 60.445312 L 26.40625 46.695312 C 26.632812 41.101562 26.945312 36.421875 27.34375 32.648438 C 26.675781 32.617188 25.546875 32.816406 23.953125 33.242188 C 21.921875 33.785156 20.535156 34.117188 19.796875 34.242188 C 19.367188 33.648438 19.15625 33.203125 19.15625 32.898438 C 23.65625 28.234375 27.953125 24.164062 32.046875 20.695312 C 34.242188 20.226562 35.8125 19.878906 36.75 19.648438 C 38.613281 19.148438 40.179688 18.582031 41.453125 17.945312 C 41.453125 18.113281 41.539062 18.5 41.71875 19.101562 C 41.90625 19.695312 41.96875 20.097656 41.90625 20.304688 Z M 39 25.898438 L 39 21.054688 L 37.296875 21.054688 C 34.296875 21.054688 30.78125 23.171875 26.75 27.398438 L 22.75 31.601562 L 24.453125 31.601562 C 24.953125 31.601562 25.550781 31.363281 26.25 30.882812 C 26.945312 30.394531 27.414062 30.148438 27.65625 30.148438 L 29 30.148438 L 29.84375 30.992188 L 28.40625 42.398438 C 27.9375 46.171875 27.566406 49.835938 27.296875 53.398438 L 27.90625 61.242188 C 29.9375 60.90625 31.914062 60.742188 33.84375 60.742188 C 34.382812 59.074219 34.785156 56.3125 35.046875 52.445312 L 35.65625 43.695312 C 35.851562 40.664062 36.46875 36.914062 37.5 32.445312 Z M 51.101562 56.398438 "/>
</g>
</svg>
