<?xml version="1.0" encoding="UTF-8"?>
<svg xmlns="http://www.w3.org/2000/svg" xmlns:xlink="http://www.w3.org/1999/xlink" width="60pt" height="80pt" viewBox="0 0 60 80" version="1.1">
<g id="surface48491">
<path style="fill:none;stroke-width:1;stroke-linecap:butt;stroke-linejoin:miter;stroke:rgb(0%,0%,0%);stroke-opacity:1;stroke-miterlimit:10;" d="M 64.046875 49.25 L 49.59375 52.5 C 49.226562 53.0625 48.679688 53.78125 47.953125 54.65625 C 46.648438 54.519531 45.21875 53.519531 43.65625 51.65625 C 42.820312 50.617188 41.269531 48.8125 39 46.25 C 37.164062 44.21875 35.179688 42.953125 33.046875 42.453125 C 32.347656 43.152344 32 43.617188 32 43.84375 C 32 43.980469 32.050781 44.101562 32.15625 44.203125 C 31.988281 45.234375 31.90625 46.183594 31.90625 47.046875 C 31.90625 48.789062 32.285156 50.4375 33.046875 52 L 35.15625 49.90625 C 35.25 50.03125 35.296875 50.179688 35.296875 50.34375 C 35.296875 51.011719 34.613281 51.679688 33.25 52.34375 C 33.144531 52.511719 33.257812 52.761719 33.59375 53.09375 C 33.800781 53.09375 34.078125 53.003906 34.421875 52.828125 C 34.773438 52.640625 35.035156 52.546875 35.203125 52.546875 C 35.628906 52.984375 35.84375 53.664062 35.84375 54.59375 L 22.25 56.796875 C 18.3125 57.429688 14.210938 59.179688 9.953125 62.046875 C 13.710938 54.316406 20.34375 41.289062 29.84375 22.953125 C 30.382812 20.921875 30.65625 19.839844 30.65625 19.703125 L 32.5 19.046875 C 37.894531 22.652344 43.960938 27.355469 50.703125 33.15625 C 52.429688 34.65625 54.613281 36.757812 57.25 39.453125 C 60.882812 43.183594 63.148438 45.480469 64.046875 46.34375 Z M 60.90625 47.296875 C 59.800781 45.828125 58.164062 43.648438 56 40.75 C 54.0625 38.1875 52.296875 36.171875 50.703125 34.703125 C 49.066406 33.933594 46.28125 31.796875 42.34375 28.296875 C 38.75 25.101562 35.617188 23.085938 32.953125 22.25 C 31.785156 23.054688 30.734375 24.289062 29.796875 25.953125 C 28.867188 27.621094 28.300781 28.523438 28.09375 28.65625 C 28.257812 28.617188 28.378906 28.59375 28.453125 28.59375 C 28.546875 28.59375 28.59375 28.632812 28.59375 28.703125 C 28.59375 28.796875 28.460938 28.964844 28.203125 29.203125 C 27.703125 29.632812 27.25 29.882812 26.84375 29.953125 C 27.113281 29.953125 27.363281 30.136719 27.59375 30.5 C 27.832031 30.867188 27.953125 31.199219 27.953125 31.5 L 21.453125 44.296875 C 19.117188 48.871094 17.21875 53.003906 15.75 56.703125 C 16.78125 56.566406 18.25 56.148438 20.15625 55.453125 L 23.796875 54.09375 C 23.992188 54.757812 24.546875 55.09375 25.453125 55.09375 C 25.984375 55.09375 26.863281 54.925781 28.09375 54.59375 C 29.59375 54.195312 30.59375 53.945312 31.09375 53.84375 C 30.5625 53.84375 29.753906 53.910156 28.671875 54.046875 C 27.585938 54.179688 26.78125 54.25 26.25 54.25 C 26.382812 53.445312 27.019531 53 28.15625 52.90625 C 29.71875 52.773438 30.695312 52.605469 31.09375 52.40625 C 30.800781 50.273438 30.65625 48.203125 30.65625 46.203125 C 30.65625 44.296875 30.785156 42.464844 31.046875 40.703125 L 31.953125 39.25 C 38.816406 44.25 44.832031 48.152344 50 50.953125 C 53.394531 49.484375 57.03125 48.265625 60.90625 47.296875 Z M 46 51.296875 C 45.332031 50.703125 44.515625 49.886719 43.546875 48.84375 C 43.546875 49.28125 43.84375 49.804688 44.4375 50.40625 C 45.039062 51 45.5625 51.296875 46 51.296875 Z M 26.5 32.453125 L 25.75 32.453125 L 25.09375 34.203125 L 25.84375 34.5 Z M 39.59375 32.703125 C 39.132812 33.570312 37.488281 34.867188 34.65625 36.59375 C 33.71875 36.59375 32.78125 36.480469 31.84375 36.25 L 30.65625 35.953125 C 30.78125 35.351562 30.226562 34.449219 29 33.25 L 29 31.59375 C 29 31.03125 29.550781 30.335938 30.65625 29.5 C 30.75 29.4375 31.695312 28.789062 33.5 27.546875 C 34.769531 27.953125 36.050781 28.339844 37.34375 28.703125 C 38.84375 29.296875 39.59375 30.046875 39.59375 30.953125 Z M 38 31.453125 C 37.601562 31.453125 37.007812 31.339844 36.21875 31.109375 C 35.4375 30.871094 34.847656 30.75 34.453125 30.75 C 34.117188 31.117188 33.566406 31.515625 32.796875 31.953125 L 31.65625 32.59375 C 32.050781 33 32.648438 33.621094 33.453125 34.453125 C 34.984375 33.953125 36.5 32.953125 38 31.453125 Z M 61.398438 53 "/>
</g>
</svg>
