<?xml version="1.0" encoding="UTF-8"?>
<svg xmlns="http://www.w3.org/2000/svg" xmlns:xlink="http://www.w3.org/1999/xlink" width="60pt" height="80pt" viewBox="0 0 60 80" version="1.1">
<g id="surface48361">
<path style="fill:none;stroke-width:1;stroke-linecap:butt;stroke-linejoin:miter;stroke:rgb(0%,0%,0%);stroke-opacity:1;stroke-miterlimit:10;" d="M 48.40625 36.546875 L 37.546875 38.953125 C 37.378906 39.121094 37.171875 39.398438 36.921875 39.78125 C 36.671875 40.15625 36.460938 40.429688 36.296875 40.59375 C 35.429688 40.46875 34.398438 39.71875 33.203125 38.34375 C 32.535156 37.585938 31.332031 36.21875 29.59375 34.25 C 28.226562 32.75 26.75 31.804688 25.15625 31.40625 C 24.613281 31.9375 24.34375 32.289062 24.34375 32.453125 C 24.34375 32.546875 24.378906 32.648438 24.453125 32.75 C 24.316406 33.523438 24.25 34.21875 24.25 34.84375 C 24.25 36.148438 24.53125 37.398438 25.09375 38.59375 L 26.703125 37 C 26.765625 37.105469 26.796875 37.21875 26.796875 37.34375 C 26.796875 37.84375 26.28125 38.34375 25.25 38.84375 C 25.21875 38.980469 25.316406 39.167969 25.546875 39.40625 C 25.679688 39.40625 25.878906 39.339844 26.140625 39.203125 C 26.410156 39.070312 26.613281 39 26.75 39 C 27.082031 39.335938 27.25 39.835938 27.25 40.5 L 17.046875 42.203125 C 14.046875 42.703125 10.960938 44 7.796875 46.09375 C 10.628906 40.304688 15.613281 30.539062 22.75 16.796875 C 23.113281 15.265625 23.296875 14.449219 23.296875 14.34375 L 24.703125 13.84375 C 28.734375 16.511719 33.28125 20.046875 38.34375 24.453125 C 39.882812 25.789062 41.535156 27.355469 43.296875 29.15625 C 46.203125 32.117188 47.90625 33.828125 48.40625 34.296875 Z M 46 35.046875 C 44.800781 33.414062 43.601562 31.78125 42.40625 30.15625 C 40.96875 28.28125 39.613281 26.761719 38.34375 25.59375 C 37.113281 25 35.03125 23.402344 32.09375 20.796875 C 29.394531 18.402344 27.046875 16.886719 25.046875 16.25 C 24.078125 16.855469 23.300781 17.75 22.71875 18.9375 C 22.132812 20.117188 21.695312 20.835938 21.40625 21.09375 C 21.53125 21.0625 21.628906 21.046875 21.703125 21.046875 C 21.796875 21.046875 21.84375 21.0625 21.84375 21.09375 C 21.84375 21.230469 21.660156 21.417969 21.296875 21.65625 C 20.929688 21.886719 20.664062 22.015625 20.5 22.046875 C 20.695312 22.046875 20.878906 22.183594 21.046875 22.453125 C 21.210938 22.714844 21.296875 22.964844 21.296875 23.203125 L 16.5 32.546875 C 14.800781 35.914062 13.351562 39.09375 12.15625 42.09375 C 12.882812 42 13.984375 41.6875 15.453125 41.15625 L 18.203125 40.15625 C 18.335938 40.65625 18.738281 40.90625 19.40625 40.90625 C 19.832031 40.90625 20.5 40.789062 21.40625 40.546875 L 23.703125 39.953125 C 23.296875 39.953125 22.6875 40.007812 21.875 40.109375 C 21.0625 40.203125 20.453125 40.25 20.046875 40.25 C 20.148438 39.648438 20.617188 39.3125 21.453125 39.25 C 22.617188 39.148438 23.351562 39.03125 23.65625 38.90625 C 23.414062 37.273438 23.296875 35.6875 23.296875 34.15625 C 23.296875 32.75 23.394531 31.398438 23.59375 30.09375 L 24.296875 29 C 29.460938 32.773438 33.976562 35.703125 37.84375 37.796875 C 40.382812 36.703125 43.101562 35.789062 46 35.046875 Z M 34.84375 38.046875 C 34.34375 37.578125 33.726562 36.964844 33 36.203125 C 33 36.539062 33.222656 36.929688 33.671875 37.375 C 34.117188 37.824219 34.507812 38.046875 34.84375 38.046875 Z M 20.203125 23.90625 L 19.65625 23.90625 L 19.15625 25.25 L 19.703125 25.453125 Z M 30.046875 24.09375 C 29.710938 24.761719 28.476562 25.730469 26.34375 27 C 25.675781 27 24.976562 26.917969 24.25 26.75 L 23.34375 26.546875 C 23.414062 26.078125 23 25.398438 22.09375 24.5 L 22.09375 23.296875 C 22.09375 22.765625 23.210938 21.75 25.453125 20.25 C 26.421875 20.554688 27.382812 20.835938 28.34375 21.09375 C 29.476562 21.5625 30.046875 22.132812 30.046875 22.796875 Z M 28.84375 23.15625 C 28.550781 23.15625 28.113281 23.074219 27.53125 22.90625 C 26.945312 22.742188 26.503906 22.65625 26.203125 22.65625 C 25.503906 23.085938 24.800781 23.546875 24.09375 24.046875 L 25.453125 25.40625 C 26.585938 25.03125 27.71875 24.28125 28.84375 23.15625 Z M 49.851562 42.25 "/>
</g>
</svg>
