<?xml version="1.0" encoding="UTF-8"?>
<svg xmlns="http://www.w3.org/2000/svg" xmlns:xlink="http://www.w3.org/1999/xlink" width="60pt" height="80pt" viewBox="0 0 60 80" version="1.1">
<g id="surface48496">
<path style="fill:none;stroke-width:1;stroke-linecap:butt;stroke-linejoin:miter;stroke:rgb(0%,0%,0%);stroke-opacity:1;stroke-miterlimit:10;" d="M 54.5 40.355469 C 53.894531 40.617188 53.046875 41.679688 51.953125 43.542969 C 49.285156 44.847656 43.9375 47.566406 35.90625 51.699219 L 19.34375 60.199219 C 19.082031 58.761719 18.453125 56.441406 17.453125 53.246094 C 17.585938 50.683594 17.101562 47.199219 16 42.792969 C 15.5 40.761719 14.363281 36.929688 12.59375 31.292969 C 12.59375 28.367188 11.925781 24.917969 10.59375 20.949219 C 10.5 20.347656 11.414062 19.613281 13.34375 18.746094 C 18.78125 20.382812 23.050781 21.199219 26.15625 21.199219 C 27.382812 21.199219 29.613281 21.035156 32.84375 20.699219 C 37.113281 20.261719 40.484375 19.695312 42.953125 18.996094 C 43.484375 18.902344 44.113281 18.972656 44.84375 19.199219 C 45.71875 19.429688 46.285156 19.542969 46.546875 19.542969 C 46.015625 20.285156 45.300781 20.917969 44.40625 21.449219 C 43.738281 21.847656 43.40625 22.292969 43.40625 22.792969 C 43.40625 23.066406 43.453125 23.367188 43.546875 23.699219 C 42.046875 25.335938 40.332031 27.433594 38.40625 29.996094 C 35.863281 33.363281 34.3125 35.378906 33.75 36.042969 C 37.1875 37.179688 40.488281 38.199219 43.65625 39.105469 C 47.445312 40.167969 49.742188 40.699219 50.546875 40.699219 C 50.984375 40.699219 51.640625 40.644531 52.515625 40.527344 C 53.398438 40.414062 54.0625 40.355469 54.5 40.355469 Z M 49 42.902344 C 48.300781 42.371094 47.234375 41.523438 45.796875 40.355469 C 44.597656 40.117188 42.179688 39.550781 38.546875 38.652344 C 35.847656 37.988281 34.265625 37.652344 33.796875 37.652344 C 33.398438 37.652344 32.84375 37.761719 32.125 37.980469 C 31.40625 38.191406 30.878906 38.292969 30.546875 38.292969 L 29.5 37.355469 C 31.53125 34.917969 33.429688 32.632812 35.203125 30.496094 C 37.460938 27.738281 38.59375 25.988281 38.59375 25.246094 L 38.59375 21.902344 C 36.5625 21.664062 33.582031 21.582031 29.65625 21.652344 L 19.40625 21.792969 C 16.96875 23.167969 15.484375 23.820312 14.953125 23.746094 C 15.710938 28.351562 17.878906 39.285156 21.453125 56.542969 C 25.679688 54.613281 30.394531 52.332031 35.59375 49.699219 Z M 15.25 35.855469 C 15.25 31.855469 14.566406 27.988281 13.203125 24.246094 L 13.203125 28.746094 C 13.097656 29.613281 13.78125 31.980469 15.25 35.855469 Z M 36.90625 50.496094 L 36.5 49.652344 L 33.15625 51.652344 L 33.453125 52.496094 Z M 16.296875 38.199219 L 16.296875 35.949219 L 15.25 35.949219 L 15.25 38.199219 Z M 16.90625 39.996094 L 16.90625 38.355469 L 15.84375 38.355469 L 15.84375 39.996094 Z M 26.953125 30.996094 C 27.046875 30.996094 27.09375 31.066406 27.09375 31.199219 C 27.09375 32.097656 26.210938 33.429688 24.453125 35.199219 C 23.953125 35.199219 23.203125 35.101562 22.203125 34.902344 C 21.203125 34.707031 20.453125 34.605469 19.953125 34.605469 C 19.484375 34.035156 19.25 33.148438 19.25 31.949219 C 19.25 30.253906 19.664062 28.722656 20.5 27.355469 C 20.726562 27.355469 21.195312 27.121094 21.90625 26.652344 C 22.90625 25.988281 23.519531 25.601562 23.75 25.496094 C 25.082031 26.832031 26.148438 28.664062 26.953125 30.996094 Z M 31.34375 44.746094 C 31.34375 46.019531 29.425781 47.917969 25.59375 50.449219 C 23.257812 49.679688 21.507812 48.582031 20.34375 47.152344 C 20.882812 45.957031 21.285156 45.105469 21.546875 44.605469 C 22.179688 43.472656 22.863281 42.585938 23.59375 41.949219 C 23.757812 41.949219 24.082031 42.101562 24.5625 42.402344 C 25.050781 42.707031 25.378906 42.855469 25.546875 42.855469 C 24.984375 42.855469 24.269531 43.304688 23.40625 44.199219 C 23.4375 45.730469 23.617188 46.699219 23.953125 47.105469 C 24.484375 47.398438 25.015625 47.710938 25.546875 48.042969 C 26.515625 47.378906 27.832031 45.664062 29.5 42.902344 C 28.96875 42.464844 28.1875 41.785156 27.15625 40.855469 C 27.25 40.917969 27.929688 41.148438 29.203125 41.542969 C 30.128906 41.847656 30.84375 42.246094 31.34375 42.746094 Z M 25.15625 28.605469 C 24.882812 28.605469 24.441406 28.582031 23.828125 28.527344 C 23.210938 28.476562 22.738281 28.449219 22.40625 28.449219 C 21.863281 28.480469 21.59375 28.582031 21.59375 28.746094 C 21.425781 29.082031 21.34375 29.480469 21.34375 29.949219 C 21.34375 30.253906 21.394531 30.722656 21.5 31.355469 C 21.601562 31.980469 21.65625 32.445312 21.65625 32.746094 L 23.84375 32.746094 C 24.71875 31.914062 25.15625 30.535156 25.15625 28.605469 Z M 53.898438 51.449219 "/>
</g>
</svg>
