<?xml version="1.0" encoding="UTF-8"?>
<svg xmlns="http://www.w3.org/2000/svg" xmlns:xlink="http://www.w3.org/1999/xlink" width="60pt" height="80pt" viewBox="0 0 60 80" version="1.1">
<g id="surface48366">
<path style="fill:none;stroke-width:1;stroke-linecap:butt;stroke-linejoin:miter;stroke:rgb(0%,0%,0%);stroke-opacity:1;stroke-miterlimit:10;" d="M 43.203125 29.050781 C 42.734375 29.25 42.097656 30.050781 41.296875 31.457031 C 35.898438 34.25 27.734375 38.417969 16.796875 43.957031 C 16.597656 42.882812 16.148438 41.148438 15.453125 38.753906 C 15.546875 36.722656 15.175781 34.105469 14.34375 30.894531 C 14.082031 29.832031 13.21875 26.96875 11.75 22.300781 C 11.75 20.105469 11.265625 17.519531 10.296875 14.550781 C 10.234375 14.019531 10.914062 13.46875 12.34375 12.894531 C 16.507812 14.105469 19.710938 14.707031 21.953125 14.707031 C 23.046875 14.707031 24.710938 14.589844 26.953125 14.347656 C 30.046875 14.015625 32.578125 13.582031 34.546875 13.050781 C 34.910156 12.988281 35.394531 13.042969 36 13.207031 C 36.601562 13.375 37.019531 13.457031 37.25 13.457031 C 36.882812 13.988281 36.332031 14.453125 35.59375 14.847656 C 35.09375 15.183594 34.84375 15.53125 34.84375 15.894531 C 34.84375 16.105469 34.878906 16.339844 34.953125 16.597656 C 33.921875 17.734375 32.65625 19.300781 31.15625 21.300781 C 29.351562 23.699219 28.1875 25.214844 27.65625 25.847656 C 34.65625 28.183594 38.851562 29.347656 40.25 29.347656 C 40.582031 29.347656 41.070312 29.300781 41.71875 29.207031 C 42.375 29.105469 42.867188 29.050781 43.203125 29.050781 Z M 39.09375 31.003906 C 38.5625 30.566406 37.765625 29.933594 36.703125 29.097656 C 35.503906 28.839844 33.6875 28.40625 31.25 27.800781 C 29.21875 27.300781 28.019531 27.050781 27.65625 27.050781 C 27.351562 27.050781 26.929688 27.136719 26.390625 27.300781 C 25.859375 27.46875 25.476562 27.550781 25.25 27.550781 L 24.453125 26.800781 C 29.015625 21.332031 31.296875 18.316406 31.296875 17.753906 L 31.296875 15.253906 C 29.765625 15.089844 27.53125 15.019531 24.59375 15.050781 L 16.84375 15.144531 C 15.050781 16.1875 13.953125 16.671875 13.546875 16.597656 C 14.117188 20.035156 15.738281 28.238281 18.40625 41.207031 C 19.9375 40.5 26.832031 37.097656 39.09375 31.003906 Z M 13.75 25.707031 C 13.75 22.707031 13.234375 19.808594 12.203125 17.003906 L 12.203125 20.347656 C 12.128906 20.984375 12.644531 22.769531 13.75 25.707031 Z M 30 36.707031 L 29.703125 36.050781 L 27.15625 37.503906 L 27.40625 38.207031 Z M 14.546875 27.457031 L 14.546875 25.753906 L 13.75 25.753906 L 13.75 27.457031 Z M 15 28.800781 L 15 27.597656 L 14.203125 27.597656 L 14.203125 28.800781 Z M 22.546875 22.050781 C 22.617188 22.050781 22.65625 22.105469 22.65625 22.207031 C 22.65625 22.875 21.988281 23.875 20.65625 25.207031 C 20.28125 25.207031 19.707031 25.136719 18.9375 24.988281 C 18.175781 24.832031 17.613281 24.753906 17.25 24.753906 C 16.914062 24.316406 16.75 23.652344 16.75 22.753906 C 16.75 21.484375 17.066406 20.332031 17.703125 19.300781 C 17.867188 19.300781 18.21875 19.136719 18.75 18.800781 L 20.15625 17.894531 C 21.15625 18.894531 21.953125 20.28125 22.546875 22.050781 Z M 25.796875 32.347656 C 25.796875 33.347656 24.363281 34.78125 21.5 36.644531 C 19.769531 36.082031 18.46875 35.269531 17.59375 34.207031 C 18.300781 32.375 19.117188 31.058594 20.046875 30.253906 C 20.179688 30.253906 20.414062 30.375 20.75 30.613281 C 21.082031 30.84375 21.332031 30.957031 21.5 30.957031 C 21.0625 30.957031 20.507812 31.292969 19.84375 31.957031 C 19.882812 33.082031 20.035156 33.796875 20.296875 34.097656 C 20.703125 34.339844 21.101562 34.589844 21.5 34.847656 C 22.132812 34.421875 23.117188 33.125 24.453125 30.957031 C 24.179688 30.6875 23.894531 30.4375 23.59375 30.207031 L 22.65625 29.457031 C 23.21875 29.65625 23.765625 29.839844 24.296875 30.003906 C 24.992188 30.265625 25.492188 30.546875 25.796875 30.847656 Z M 21.203125 20.253906 C 21.128906 20.253906 20.78125 20.21875 20.15625 20.144531 C 19.78125 20.113281 19.425781 20.113281 19.09375 20.144531 C 18.695312 20.144531 18.5 20.214844 18.5 20.347656 C 18.332031 20.753906 18.28125 21.253906 18.34375 21.847656 C 18.34375 21.847656 18.410156 22.347656 18.546875 23.347656 L 20.203125 23.347656 C 20.867188 22.753906 21.203125 21.722656 21.203125 20.253906 Z M 41 41.050781 "/>
</g>
</svg>
