<?xml version="1.0" encoding="UTF-8"?>
<svg xmlns="http://www.w3.org/2000/svg" xmlns:xlink="http://www.w3.org/1999/xlink" width="60pt" height="80pt" viewBox="0 0 60 80" version="1.1">
<g id="surface24931">
<path style="fill:none;stroke-width:1;stroke-linecap:butt;stroke-linejoin:miter;stroke:rgb(0%,0%,0%);stroke-opacity:1;stroke-miterlimit:10;" d="M 37.046875 50.246094 C 36.878906 49.351562 36.628906 48.304688 36.296875 47.105469 C 35.960938 45.898438 35.632812 44.652344 35.3125 43.371094 C 35 42.089844 34.726562 40.820312 34.5 39.558594 C 34.269531 38.289062 34.15625 37.152344 34.15625 36.152344 C 34.15625 35.382812 34.382812 34.664062 34.84375 33.996094 C 34.644531 33.570312 34.3125 33.355469 33.84375 33.355469 C 33.476562 33.355469 33.128906 33.441406 32.796875 33.605469 C 32.460938 33.773438 32.113281 33.855469 31.75 33.855469 C 31.050781 32.816406 30.703125 31.648438 30.703125 30.355469 C 30.703125 29.117188 31.050781 28.011719 31.75 27.042969 C 31.082031 25.511719 30.53125 23.941406 30.09375 22.324219 C 29.664062 20.710938 29.285156 19.085938 28.953125 17.449219 C 28.753906 17.316406 28.613281 17.074219 28.53125 16.730469 C 28.445312 16.378906 28.285156 16.199219 28.046875 16.199219 C 27.878906 16.199219 27.726562 16.292969 27.59375 16.480469 C 27.46875 16.660156 27.328125 16.855469 27.171875 17.074219 C 27.023438 17.292969 26.847656 17.488281 26.640625 17.652344 C 26.441406 17.820312 26.226562 17.886719 26 17.855469 L 21.59375 13.855469 C 21.226562 13.753906 20.992188 13.839844 20.890625 14.121094 C 20.796875 14.402344 20.75 14.679688 20.75 14.949219 C 20.75 15.316406 20.613281 16.019531 20.34375 17.058594 C 20.082031 18.089844 19.75 19.289062 19.34375 20.652344 C 18.945312 22.019531 18.5 23.488281 18 25.058594 C 17.5 26.621094 17.023438 28.121094 16.578125 29.558594 C 16.128906 30.988281 15.71875 32.269531 15.34375 33.402344 C 14.976562 34.539062 14.710938 35.355469 14.546875 35.855469 C 14.378906 36.355469 14.113281 36.746094 13.75 37.027344 C 13.382812 37.308594 12.957031 37.535156 12.46875 37.699219 C 11.988281 37.867188 11.488281 38.003906 10.96875 38.105469 C 10.457031 38.199219 10 38.300781 9.59375 38.402344 C 9.699219 38.601562 9.777344 38.824219 9.828125 39.074219 C 9.882812 39.324219 9.921875 39.574219 9.953125 39.824219 C 9.984375 40.074219 10.039062 40.308594 10.125 40.527344 C 10.207031 40.746094 10.347656 40.917969 10.546875 41.042969 C 11.015625 40.949219 11.460938 40.746094 11.890625 40.433594 C 12.328125 40.113281 12.78125 39.949219 13.25 39.949219 L 13.75 39.996094 C 13.3125 41.902344 12.625 43.691406 11.6875 45.355469 C 10.757812 47.023438 9.851562 48.707031 8.953125 50.402344 C 9.289062 50.632812 9.679688 50.742188 10.125 50.730469 C 10.570312 50.710938 10.992188 50.726562 11.390625 50.777344 C 11.796875 50.832031 12.128906 50.996094 12.390625 51.277344 C 12.660156 51.558594 12.796875 52.117188 12.796875 52.949219 C 12.796875 53.113281 12.757812 53.371094 12.6875 53.714844 C 12.625 54.066406 12.566406 54.417969 12.515625 54.761719 C 12.472656 55.113281 12.46875 55.433594 12.5 55.714844 C 12.53125 56.003906 12.644531 56.152344 12.84375 56.152344 C 13.28125 56.152344 13.679688 56.027344 14.046875 55.777344 C 14.410156 55.527344 14.8125 55.417969 15.25 55.449219 C 15.082031 54.75 14.984375 54.058594 14.953125 53.371094 C 14.921875 52.691406 15.050781 52.023438 15.34375 51.355469 L 15.90625 51.246094 C 16.363281 51.246094 16.773438 51.410156 17.140625 51.730469 C 17.515625 52.042969 17.9375 52.214844 18.40625 52.246094 C 18.46875 52.113281 18.503906 52.003906 18.515625 51.917969 C 18.535156 51.835938 18.546875 51.730469 18.546875 51.605469 C 18.546875 51.441406 18.519531 51.285156 18.46875 51.136719 C 18.425781 50.980469 18.367188 50.820312 18.296875 50.652344 C 18.460938 49.914062 18.59375 49.179688 18.6875 48.449219 C 18.789062 47.722656 18.894531 46.980469 19 46.230469 C 19.101562 45.480469 19.226562 44.742188 19.375 44.011719 C 19.519531 43.273438 19.726562 42.554688 20 41.855469 C 21.132812 41.023438 22.359375 40.429688 23.671875 40.074219 C 24.992188 39.722656 26.300781 39.378906 27.59375 39.042969 C 28.164062 40.617188 28.515625 42.277344 28.640625 44.027344 C 28.773438 45.777344 28.84375 47.472656 28.84375 49.105469 C 28.84375 49.367188 28.789062 49.632812 28.6875 49.902344 C 28.59375 50.164062 28.644531 50.414062 28.84375 50.652344 L 32.65625 49.996094 C 32.71875 49.738281 32.78125 49.425781 32.84375 49.058594 C 32.914062 48.683594 33.132812 48.464844 33.5 48.402344 C 33.601562 48.539062 33.6875 48.757812 33.75 49.058594 C 33.8125 49.351562 33.894531 49.660156 34 49.980469 C 34.101562 50.292969 34.21875 50.570312 34.34375 50.808594 C 34.476562 51.039062 34.644531 51.152344 34.84375 51.152344 C 35.21875 51.152344 35.628906 51.085938 36.078125 50.949219 C 36.523438 50.816406 36.847656 50.582031 37.046875 50.246094 Z M 28.296875 32.246094 L 28.15625 32.652344 C 26.988281 32.683594 25.867188 32.867188 24.796875 33.199219 C 23.734375 33.535156 22.664062 33.933594 21.59375 34.402344 L 21.25 33.996094 C 21.351562 32.800781 21.46875 31.589844 21.59375 30.371094 C 21.726562 29.152344 21.910156 27.945312 22.140625 26.746094 C 22.378906 25.550781 22.710938 24.382812 23.140625 23.246094 C 23.578125 22.113281 24.144531 21.027344 24.84375 19.996094 C 25.476562 20.902344 25.976562 21.855469 26.34375 22.855469 C 26.71875 23.855469 27.007812 24.882812 27.21875 25.933594 C 27.4375 26.976562 27.617188 28.035156 27.765625 29.105469 C 27.921875 30.167969 28.097656 31.214844 28.296875 32.246094 Z M 37.101562 52.449219 "/>
</g>
</svg>
