<?xml version="1.0" encoding="UTF-8"?>
<svg xmlns="http://www.w3.org/2000/svg" xmlns:xlink="http://www.w3.org/1999/xlink" width="60pt" height="80pt" viewBox="0 0 60 80" version="1.1">
<g id="surface24806">
<path style="fill:none;stroke-width:1;stroke-linecap:butt;stroke-linejoin:miter;stroke:rgb(0%,0%,0%);stroke-opacity:1;stroke-miterlimit:10;" d="M 34.84375 45.957031 C 34.75 45.6875 34.566406 45.496094 34.296875 45.378906 C 34.035156 45.265625 33.742188 45.191406 33.421875 45.160156 C 33.109375 45.121094 32.785156 45.097656 32.453125 45.097656 C 32.148438 45.097656 31.882812 45.066406 31.65625 45.003906 C 31.550781 45.339844 31.414062 45.730469 31.25 46.175781 C 31.082031 46.625 30.800781 46.902344 30.40625 47.003906 C 30.40625 46.234375 30.507812 45.496094 30.71875 44.785156 C 30.9375 44.066406 31.203125 43.359375 31.515625 42.660156 C 31.835938 41.953125 32.15625 41.261719 32.46875 40.582031 C 32.789062 39.894531 33.035156 39.1875 33.203125 38.457031 C 32.835938 37.386719 32.710938 36.292969 32.828125 35.175781 C 32.941406 34.0625 33.132812 32.96875 33.40625 31.894531 C 33.238281 31.605469 32.8125 31.292969 32.125 30.957031 C 31.4375 30.625 30.691406 30.332031 29.890625 30.082031 C 29.097656 29.832031 28.316406 29.625 27.546875 29.457031 C 26.785156 29.292969 26.238281 29.207031 25.90625 29.207031 C 25.238281 29.207031 24.59375 29.277344 23.96875 29.410156 C 23.351562 29.535156 22.726562 29.683594 22.09375 29.847656 C 21.46875 30.015625 20.84375 30.183594 20.21875 30.347656 C 19.601562 30.515625 18.976562 30.636719 18.34375 30.707031 C 17.945312 30.300781 17.679688 29.859375 17.546875 29.378906 C 17.410156 28.890625 17.332031 28.390625 17.3125 27.878906 C 17.300781 27.359375 17.296875 26.847656 17.296875 26.347656 C 17.296875 25.816406 17.25 25.300781 17.15625 24.800781 C 17.6875 23.96875 18.398438 23.386719 19.296875 23.050781 L 19.40625 22.644531 C 19.40625 22.082031 19.226562 21.566406 18.875 21.097656 C 18.519531 20.628906 18.226562 20.167969 18 19.707031 C 18.226562 18.800781 18.582031 17.957031 19.0625 17.175781 C 19.550781 16.394531 20.082031 15.621094 20.65625 14.847656 L 20.25 13.957031 L 12.046875 12.347656 L 11.296875 12.753906 C 11.535156 13.589844 11.78125 14.472656 12.03125 15.410156 C 12.28125 16.339844 12.519531 17.285156 12.75 18.253906 C 12.976562 19.222656 13.164062 20.183594 13.3125 21.128906 C 13.46875 22.078125 13.546875 22.984375 13.546875 23.847656 C 13.546875 25.816406 13.460938 28.136719 13.296875 30.800781 C 13.128906 33.46875 12.921875 36.214844 12.671875 39.035156 C 12.421875 41.847656 12.132812 44.597656 11.8125 47.285156 C 11.5 49.964844 11.195312 52.285156 10.90625 54.253906 C 10.863281 54.417969 10.800781 54.589844 10.71875 54.769531 C 10.632812 54.957031 10.59375 55.117188 10.59375 55.253906 C 10.59375 55.480469 10.726562 55.695312 11 55.894531 C 12.164062 55.558594 13.320312 55.292969 14.46875 55.097656 C 15.625 54.898438 16.800781 54.800781 18 54.800781 C 18.726562 54.800781 19.476562 54.851562 20.25 54.957031 L 20.5 54.253906 C 19.9375 53.679688 19.53125 53.113281 19.28125 52.550781 C 19.03125 51.988281 18.90625 51.324219 18.90625 50.550781 C 18.90625 50.324219 18.921875 50.09375 18.953125 49.863281 C 18.984375 49.625 19.050781 49.40625 19.15625 49.207031 C 19.914062 49.707031 20.695312 50.234375 21.5 50.785156 C 22.300781 51.328125 23.117188 51.828125 23.953125 52.285156 C 24.785156 52.734375 25.648438 53.109375 26.546875 53.410156 C 27.453125 53.699219 28.382812 53.847656 29.34375 53.847656 C 30.007812 52.515625 30.785156 51.261719 31.671875 50.082031 C 32.554688 48.894531 33.347656 47.652344 34.046875 46.347656 Z M 29.09375 36.300781 L 29.09375 37.050781 C 29.09375 38.050781 28.984375 39.050781 28.765625 40.050781 C 28.554688 41.050781 28.453125 42.066406 28.453125 43.097656 C 28.453125 43.296875 28.453125 43.5 28.453125 43.707031 C 28.453125 43.90625 28.484375 44.105469 28.546875 44.300781 C 27.878906 44.96875 27.226562 45.644531 26.59375 46.332031 C 25.96875 47.011719 25.453125 47.765625 25.046875 48.597656 C 24.578125 48.371094 24.125 48.082031 23.6875 47.738281 C 23.257812 47.386719 22.820312 47.050781 22.375 46.738281 C 21.925781 46.417969 21.46875 46.113281 21 45.832031 C 20.53125 45.542969 20.015625 45.347656 19.453125 45.253906 C 18.953125 44.652344 18.550781 44.015625 18.25 43.347656 C 17.945312 42.683594 17.710938 41.996094 17.546875 41.285156 C 17.378906 40.566406 17.257812 39.832031 17.1875 39.082031 C 17.125 38.332031 17.078125 37.589844 17.046875 36.847656 C 17.285156 36.621094 17.59375 36.449219 17.96875 36.332031 C 18.351562 36.207031 18.71875 36.082031 19.0625 35.957031 C 19.414062 35.824219 19.71875 35.65625 19.96875 35.457031 C 20.21875 35.25 20.363281 34.917969 20.40625 34.457031 C 20.769531 34.519531 21.117188 34.605469 21.453125 34.707031 C 21.785156 34.800781 22.132812 34.847656 22.5 34.847656 C 23.195312 34.847656 23.644531 34.5 23.84375 33.800781 Z M 35.851562 53.550781 "/>
</g>
</svg>
