<?xml version="1.0" encoding="UTF-8"?>
<svg xmlns="http://www.w3.org/2000/svg" xmlns:xlink="http://www.w3.org/1999/xlink" width="60pt" height="80pt" viewBox="0 0 60 80" version="1.1">
<g id="surface24941">
<path style="fill:none;stroke-width:1;stroke-linecap:butt;stroke-linejoin:miter;stroke:rgb(0%,0%,0%);stroke-opacity:1;stroke-miterlimit:10;" d="M 35.703125 43.65625 L 35.703125 43.34375 C 35.703125 43.21875 35.679688 43.023438 35.640625 42.75 C 35.609375 42.480469 35.550781 42.214844 35.46875 41.953125 C 35.382812 41.683594 35.273438 41.449219 35.140625 41.25 C 35.015625 41.054688 34.851562 40.953125 34.65625 40.953125 C 34.1875 40.953125 33.785156 41.039062 33.453125 41.203125 C 33.316406 40.871094 33.234375 40.53125 33.203125 40.1875 C 33.171875 39.835938 33.15625 39.46875 33.15625 39.09375 C 33.15625 38.03125 33.28125 36.984375 33.53125 35.953125 C 33.78125 34.921875 34.019531 33.871094 34.25 32.796875 C 33.25 32.871094 32.273438 32.757812 31.328125 32.453125 C 30.378906 32.152344 29.421875 32.03125 28.453125 32.09375 L 27.84375 32.15625 C 27.644531 33.523438 27.546875 34.871094 27.546875 36.203125 C 27.546875 38.265625 27.78125 40.382812 28.25 42.546875 C 28.019531 42.578125 27.78125 42.632812 27.53125 42.703125 C 27.28125 42.765625 27.035156 42.796875 26.796875 42.796875 C 26.128906 42.796875 25.476562 42.726562 24.84375 42.578125 C 24.21875 42.421875 23.570312 42.328125 22.90625 42.296875 C 22.769531 42.496094 22.703125 42.664062 22.703125 42.796875 C 22.703125 43.101562 22.765625 43.429688 22.890625 43.78125 C 23.023438 44.125 22.992188 44.433594 22.796875 44.703125 C 22.398438 44.671875 21.929688 44.667969 21.390625 44.6875 C 20.859375 44.699219 20.328125 44.679688 19.796875 44.625 C 19.265625 44.574219 18.789062 44.449219 18.375 44.25 C 17.957031 44.054688 17.679688 43.703125 17.546875 43.203125 C 17.484375 43.039062 17.328125 42.546875 17.078125 41.734375 C 16.828125 40.914062 16.566406 40.039062 16.296875 39.109375 C 16.035156 38.171875 15.785156 37.328125 15.546875 36.578125 C 15.316406 35.828125 15.203125 35.417969 15.203125 35.34375 C 15.203125 34.78125 15.242188 33.96875 15.328125 32.90625 C 15.410156 31.835938 15.566406 30.667969 15.796875 29.40625 C 16.035156 28.136719 16.351562 26.851562 16.75 25.546875 C 17.144531 24.246094 17.648438 23.054688 18.265625 21.96875 C 18.890625 20.886719 19.625 20.007812 20.46875 19.328125 C 21.320312 18.640625 22.316406 18.296875 23.453125 18.296875 C 24.585938 18.296875 25.65625 18.625 26.65625 19.28125 C 27.65625 19.929688 28.40625 20.75 28.90625 21.75 C 28.53125 22.617188 28.289062 23.484375 28.1875 24.359375 C 28.09375 25.226562 28.015625 26.089844 27.953125 26.953125 L 33.453125 26.953125 C 33.378906 25.714844 33.3125 24.464844 33.25 23.203125 C 33.1875 21.933594 33.335938 20.683594 33.703125 19.453125 C 33.628906 19.421875 33.535156 19.390625 33.421875 19.359375 C 33.304688 19.320312 33.21875 19.296875 33.15625 19.296875 C 31.988281 19.296875 31.085938 19.234375 30.453125 19.109375 C 29.816406 18.976562 29.335938 18.773438 29.015625 18.5 C 28.703125 18.230469 28.503906 17.914062 28.421875 17.546875 C 28.335938 17.183594 28.269531 16.765625 28.21875 16.296875 C 28.175781 15.828125 28.09375 15.3125 27.96875 14.75 C 27.851562 14.1875 27.628906 13.589844 27.296875 12.953125 L 15.453125 11.203125 L 15 11.453125 C 14.832031 12.257812 14.710938 12.980469 14.640625 13.625 C 14.578125 14.273438 14.488281 14.898438 14.375 15.5 C 14.257812 16.105469 14.082031 16.699219 13.84375 17.28125 C 13.613281 17.867188 13.265625 18.507812 12.796875 19.203125 C 12.734375 19.296875 12.597656 19.449219 12.390625 19.65625 C 12.191406 19.855469 11.992188 20.054688 11.796875 20.25 C 11.597656 20.449219 11.421875 20.640625 11.265625 20.828125 C 11.117188 21.007812 11.046875 21.132812 11.046875 21.203125 C 11.046875 22.101562 11.203125 23.074219 11.515625 24.125 C 11.835938 25.179688 12 26.234375 12 27.296875 C 12 29.132812 11.847656 30.945312 11.546875 32.734375 C 11.242188 34.515625 11.03125 36.324219 10.90625 38.15625 C 11.632812 39.617188 12.296875 41.148438 12.890625 42.75 C 13.492188 44.355469 14.210938 45.824219 15.046875 47.15625 C 15.878906 48.492188 16.925781 49.585938 18.1875 50.4375 C 19.457031 51.28125 21.128906 51.6875 23.203125 51.65625 C 23.203125 51.15625 23.203125 50.6875 23.203125 50.25 C 23.203125 49.78125 23.257812 49.375 23.375 49.03125 C 23.488281 48.679688 23.703125 48.402344 24.015625 48.203125 C 24.335938 48.007812 24.800781 47.90625 25.40625 47.90625 L 26.59375 48.046875 C 26.800781 48.414062 27.0625 48.742188 27.375 49.03125 C 27.6875 49.3125 28.078125 49.453125 28.546875 49.453125 C 28.742188 49.453125 29.160156 49.328125 29.796875 49.078125 C 30.429688 48.828125 31.082031 48.53125 31.75 48.1875 C 32.414062 47.835938 33.015625 47.476562 33.546875 47.109375 C 34.078125 46.734375 34.34375 46.449219 34.34375 46.25 C 34.34375 45.949219 34.210938 45.683594 33.953125 45.453125 C 33.953125 44.984375 34.148438 44.625 34.546875 44.375 C 34.953125 44.125 35.335938 43.886719 35.703125 43.65625 Z M 35.648438 50.5 "/>
</g>
</svg>
