<?xml version="1.0" encoding="UTF-8"?>
<svg xmlns="http://www.w3.org/2000/svg" xmlns:xlink="http://www.w3.org/1999/xlink" width="60pt" height="80pt" viewBox="0 0 60 80" version="1.1">
<g id="surface24816">
<path style="fill:none;stroke-width:1;stroke-linecap:butt;stroke-linejoin:miter;stroke:rgb(0%,0%,0%);stroke-opacity:1;stroke-miterlimit:10;" d="M 33.75 51.59375 L 33.203125 51.90625 C 32.867188 51.605469 32.640625 51.261719 32.515625 50.875 C 32.398438 50.492188 32.316406 50.089844 32.265625 49.671875 C 32.222656 49.257812 32.160156 48.851562 32.078125 48.453125 C 31.992188 48.046875 31.816406 47.679688 31.546875 47.34375 C 30.648438 41.417969 30.203125 35.417969 30.203125 29.34375 C 30.203125 26.8125 30.273438 24.292969 30.421875 21.78125 C 30.578125 19.261719 30.835938 16.75 31.203125 14.25 L 30.65625 14 L 29.84375 15.59375 C 29.582031 15.136719 29.367188 14.667969 29.203125 14.1875 C 29.035156 13.699219 28.984375 13.203125 29.046875 12.703125 L 29.203125 10.75 C 29.128906 10.6875 29.035156 10.605469 28.921875 10.5 C 28.804688 10.398438 28.71875 10.34375 28.65625 10.34375 C 28.351562 10.34375 28.109375 10.4375 27.921875 10.625 C 27.742188 10.8125 27.5625 11.03125 27.375 11.28125 C 27.1875 11.53125 27 11.765625 26.8125 11.984375 C 26.632812 12.195312 26.414062 12.3125 26.15625 12.34375 L 26.15625 22.59375 C 26.15625 23.261719 26.300781 23.96875 26.59375 24.71875 C 26.894531 25.46875 27.046875 26.230469 27.046875 27 C 27.046875 28.4375 26.679688 29.804688 25.953125 31.09375 C 25.285156 30.835938 24.703125 30.4375 24.203125 29.90625 C 23.703125 29.367188 23.332031 28.746094 23.09375 28.046875 C 22.257812 28.121094 21.519531 28.148438 20.875 28.125 C 20.226562 28.105469 19.613281 28.078125 19.03125 28.046875 C 18.445312 28.015625 17.867188 27.984375 17.296875 27.953125 C 16.734375 27.921875 16.117188 27.90625 15.453125 27.90625 C 15.085938 27.90625 14.785156 28.054688 14.546875 28.34375 C 14.742188 29.84375 14.769531 31.34375 14.625 32.84375 C 14.476562 34.34375 14.203125 35.828125 13.796875 37.296875 C 13.398438 38.765625 12.910156 40.210938 12.328125 41.625 C 11.742188 43.042969 11.117188 44.417969 10.453125 45.75 C 11.117188 45.917969 11.734375 46.203125 12.296875 46.609375 C 12.867188 47.007812 13.4375 47.386719 14 47.75 L 13.796875 51.59375 C 15.160156 52.03125 16.476562 52.699219 17.75 53.59375 C 18.78125 53.136719 19.84375 52.8125 20.9375 52.625 C 22.039062 52.4375 23.160156 52.34375 24.296875 52.34375 C 25.796875 52.34375 27.28125 52.429688 28.75 52.59375 C 30.21875 52.761719 31.703125 52.882812 33.203125 52.953125 C 33.367188 52.851562 33.535156 52.726562 33.703125 52.578125 C 33.867188 52.421875 33.953125 52.230469 33.953125 52 C 33.953125 51.835938 33.882812 51.699219 33.75 51.59375 Z M 27.296875 37.25 C 26.929688 38.648438 26.585938 40.039062 26.265625 41.421875 C 25.953125 42.808594 25.726562 44.21875 25.59375 45.65625 C 24.894531 45.523438 24.203125 45.492188 23.515625 45.5625 C 22.835938 45.625 22.15625 45.742188 21.46875 45.90625 C 20.789062 46.074219 20.125 46.265625 19.46875 46.484375 C 18.820312 46.695312 18.164062 46.882812 17.5 47.046875 C 16.9375 46.152344 16.53125 45.1875 16.28125 44.15625 C 16.03125 43.117188 15.90625 42.0625 15.90625 41 C 15.90625 40.199219 15.96875 39.28125 16.09375 38.25 C 16.226562 37.21875 16.488281 36.246094 16.875 35.328125 C 17.257812 34.414062 17.765625 33.636719 18.390625 33 C 19.023438 32.367188 19.84375 32.046875 20.84375 32.046875 C 21.84375 32.046875 22.519531 32.214844 22.875 32.546875 C 23.226562 32.882812 23.46875 33.28125 23.59375 33.75 C 23.726562 34.21875 23.84375 34.714844 23.9375 35.234375 C 24.039062 35.746094 24.328125 36.199219 24.796875 36.59375 C 25.265625 36.59375 25.722656 36.605469 26.171875 36.625 C 26.617188 36.648438 26.992188 36.855469 27.296875 37.25 Z M 33.351562 53.25 "/>
</g>
</svg>
