<?xml version="1.0" encoding="UTF-8"?>
<svg xmlns="http://www.w3.org/2000/svg" xmlns:xlink="http://www.w3.org/1999/xlink" width="60pt" height="80pt" viewBox="0 0 60 80" version="1.1">
<g id="surface24981">
<path style="fill:none;stroke-width:1;stroke-linecap:butt;stroke-linejoin:miter;stroke:rgb(0%,0%,0%);stroke-opacity:1;stroke-miterlimit:10;" d="M 38.09375 23.800781 C 37.59375 23.363281 37.125 22.890625 36.6875 22.378906 C 36.257812 21.859375 35.828125 21.347656 35.390625 20.847656 C 34.960938 20.347656 34.503906 19.871094 34.015625 19.410156 C 33.535156 18.941406 33 18.558594 32.40625 18.253906 C 32.238281 18.515625 31.882812 19.019531 31.34375 19.769531 C 30.8125 20.519531 30.238281 21.3125 29.625 22.144531 C 29.007812 22.980469 28.414062 23.714844 27.84375 24.347656 C 27.28125 24.984375 26.898438 25.300781 26.703125 25.300781 C 26.503906 25.300781 26.320312 25.230469 26.15625 25.082031 C 25.988281 24.925781 25.828125 24.765625 25.671875 24.597656 C 25.523438 24.433594 25.367188 24.277344 25.203125 24.128906 C 25.035156 23.972656 24.832031 23.894531 24.59375 23.894531 L 24.25 23.957031 C 23.613281 24.75 23.003906 25.582031 22.421875 26.457031 C 21.835938 27.324219 21.242188 28.167969 20.640625 28.988281 C 20.046875 29.800781 19.40625 30.597656 18.71875 31.378906 C 18.039062 32.160156 17.300781 32.886719 16.5 33.550781 C 16.46875 31.1875 16.765625 28.847656 17.390625 26.535156 C 18.023438 24.214844 18.8125 21.96875 19.75 19.800781 C 19.21875 19.332031 18.953125 18.734375 18.953125 18.003906 C 18.953125 17.308594 19.039062 16.609375 19.21875 15.910156 C 19.40625 15.203125 19.445312 14.5 19.34375 13.800781 C 18.582031 14.136719 17.84375 14.503906 17.125 14.910156 C 16.40625 15.308594 15.675781 15.707031 14.9375 16.113281 C 14.207031 16.511719 13.46875 16.886719 12.71875 17.238281 C 11.96875 17.582031 11.195312 17.855469 10.40625 18.050781 C 10.46875 18.21875 10.523438 18.394531 10.578125 18.582031 C 10.628906 18.761719 10.65625 18.933594 10.65625 19.097656 C 10.65625 19.464844 10.613281 19.808594 10.53125 20.128906 C 10.445312 20.441406 10.40625 20.765625 10.40625 21.097656 L 12.25 21.707031 C 12.1875 24.769531 12.160156 27.8125 12.171875 30.832031 C 12.191406 33.84375 12.203125 36.886719 12.203125 39.957031 C 12.203125 41.019531 12.109375 42.089844 11.921875 43.160156 C 11.742188 44.222656 11.550781 45.28125 11.34375 46.332031 C 11.144531 47.375 10.953125 48.433594 10.765625 49.503906 C 10.585938 50.566406 10.5 51.652344 10.5 52.753906 C 10.5 53.480469 10.546875 54.210938 10.640625 54.941406 C 10.742188 55.679688 10.929688 56.398438 11.203125 57.097656 C 12.035156 56.867188 12.96875 56.753906 14 56.753906 C 13.9375 56.285156 13.878906 55.804688 13.828125 55.316406 C 13.773438 54.835938 13.863281 54.382812 14.09375 53.957031 C 14.5 53.988281 14.765625 53.855469 14.890625 53.566406 C 15.023438 53.285156 15.144531 52.972656 15.25 52.628906 C 15.351562 52.277344 15.476562 51.941406 15.625 51.628906 C 15.769531 51.308594 16.0625 51.128906 16.5 51.097656 C 16.226562 49.339844 16.0625 47.574219 16 45.800781 C 15.9375 44.03125 15.882812 42.25 15.84375 40.457031 L 16.40625 39.550781 C 17.863281 40.449219 19.117188 41.472656 20.171875 42.628906 C 21.222656 43.777344 22.210938 44.96875 23.140625 46.207031 C 24.078125 47.4375 25.03125 48.660156 26 49.878906 C 26.96875 51.097656 28.117188 52.238281 29.453125 53.300781 L 30.09375 53.300781 C 30.195312 53.199219 30.296875 53.089844 30.390625 52.972656 C 30.492188 52.859375 30.546875 52.71875 30.546875 52.550781 C 30.546875 51.824219 30.644531 51.238281 30.84375 50.800781 C 31.050781 50.363281 31.257812 50.015625 31.46875 49.753906 C 31.6875 49.484375 31.894531 49.234375 32.09375 49.003906 C 32.300781 48.765625 32.40625 48.480469 32.40625 48.144531 C 32.40625 47.855469 32.285156 47.609375 32.046875 47.410156 C 31.816406 47.203125 31.582031 47.03125 31.34375 46.894531 C 31.644531 46.730469 31.925781 46.53125 32.1875 46.300781 C 32.457031 46.074219 32.628906 45.769531 32.703125 45.394531 C 31.929688 44.769531 31.03125 44 30 43.082031 C 28.96875 42.167969 27.96875 41.175781 27 40.113281 C 26.03125 39.042969 25.15625 37.9375 24.375 36.800781 C 23.59375 35.667969 23.066406 34.582031 22.796875 33.550781 C 23.765625 32.78125 24.773438 32.089844 25.828125 31.472656 C 26.878906 30.859375 27.953125 30.277344 29.046875 29.722656 C 30.148438 29.171875 31.25 28.625 32.34375 28.082031 C 33.445312 27.53125 34.515625 26.921875 35.546875 26.253906 C 35.316406 25.816406 35.285156 25.484375 35.453125 25.253906 C 35.617188 25.015625 35.867188 24.824219 36.203125 24.675781 C 36.535156 24.53125 36.890625 24.402344 37.265625 24.285156 C 37.648438 24.160156 37.925781 24 38.09375 23.800781 Z M 37.300781 53.300781 "/>
</g>
</svg>
