<?xml version="1.0" encoding="UTF-8"?>
<svg xmlns="http://www.w3.org/2000/svg" xmlns:xlink="http://www.w3.org/1999/xlink" width="60pt" height="80pt" viewBox="0 0 60 80" version="1.1">
<g id="surface25041">
<path style="fill:none;stroke-width:1;stroke-linecap:butt;stroke-linejoin:miter;stroke:rgb(0%,0%,0%);stroke-opacity:1;stroke-miterlimit:10;" d="M 47.40625 10.046875 L 39.546875 9.296875 L 39 12.046875 C 39.332031 12.214844 39.664062 12.320312 40 12.359375 C 40.332031 12.390625 40.625 12.4375 40.875 12.5 C 41.125 12.5625 41.320312 12.714844 41.46875 12.953125 C 41.625 13.183594 41.703125 13.585938 41.703125 14.15625 C 41.703125 15.21875 41.617188 16.390625 41.453125 17.671875 C 41.285156 18.953125 41.035156 20.230469 40.703125 21.5 C 40.367188 22.773438 39.953125 23.992188 39.453125 25.15625 C 38.953125 26.324219 38.382812 27.339844 37.75 28.203125 C 36.945312 27.539062 36.210938 26.523438 35.546875 25.15625 C 34.878906 23.78125 34.320312 22.304688 33.875 20.71875 C 33.425781 19.136719 33.09375 17.578125 32.875 16.046875 C 32.65625 14.515625 32.5625 13.25 32.59375 12.25 L 32.703125 9.5 C 32.535156 9.4375 32.382812 9.40625 32.25 9.40625 C 32.144531 9.40625 32.007812 9.40625 31.84375 9.40625 C 31.476562 9.40625 31.101562 9.4375 30.71875 9.5 C 30.34375 9.5625 29.953125 9.5625 29.546875 9.5 C 29.242188 9.605469 29.09375 9.773438 29.09375 10 C 29.09375 10.199219 29.1875 10.40625 29.375 10.625 C 29.5625 10.84375 29.65625 11.105469 29.65625 11.40625 C 29.65625 11.53125 29.578125 11.636719 29.421875 11.71875 C 29.273438 11.804688 29.148438 11.84375 29.046875 11.84375 C 28.785156 11.84375 28.535156 11.8125 28.296875 11.75 C 28.066406 11.6875 27.816406 11.703125 27.546875 11.796875 C 27.484375 14.101562 27.359375 16.265625 27.171875 18.296875 C 26.992188 20.328125 26.6875 22.3125 26.25 24.25 C 25.8125 26.1875 25.21875 28.101562 24.46875 29.984375 C 23.71875 31.859375 22.742188 33.796875 21.546875 35.796875 L 21.5 34.75 L 21.65625 33.796875 C 21.445312 32.871094 21.257812 31.9375 21.09375 31 C 20.925781 30.0625 20.75 29.132812 20.5625 28.203125 C 20.382812 27.265625 20.175781 26.339844 19.9375 25.421875 C 19.707031 24.507812 19.394531 23.617188 19 22.75 C 18.695312 22.8125 18.382812 22.828125 18.0625 22.796875 C 17.75 22.765625 17.457031 22.683594 17.1875 22.546875 C 16.925781 22.414062 16.710938 22.230469 16.546875 22 C 16.378906 21.773438 16.296875 21.46875 16.296875 21.09375 C 16.296875 20.761719 16.394531 20.46875 16.59375 20.21875 C 16.800781 19.96875 17.03125 19.730469 17.28125 19.5 C 17.53125 19.273438 17.769531 19.042969 18 18.8125 C 18.226562 18.574219 18.378906 18.289062 18.453125 17.953125 C 17.816406 17.789062 17.210938 17.539062 16.640625 17.203125 C 16.078125 16.871094 15.664062 16.402344 15.40625 15.796875 C 15.738281 15.203125 16.203125 14.742188 16.796875 14.40625 C 17.398438 14.074219 17.867188 13.605469 18.203125 13 C 17.503906 12.898438 16.90625 12.554688 16.40625 11.96875 C 15.90625 11.386719 15.519531 10.796875 15.25 10.203125 C 14.550781 10.464844 13.84375 10.71875 13.125 10.96875 C 12.40625 11.21875 11.664062 11.398438 10.90625 11.5 L 10.84375 12.09375 C 10.84375 12.167969 10.894531 12.28125 11 12.4375 C 11.101562 12.585938 11.1875 12.6875 11.25 12.75 C 11.21875 13.71875 11.222656 14.703125 11.265625 15.703125 C 11.316406 16.703125 11.34375 17.71875 11.34375 18.75 C 11.34375 19.78125 11.289062 20.792969 11.1875 21.78125 C 11.09375 22.761719 10.894531 23.699219 10.59375 24.59375 C 11.0625 24.96875 11.59375 25.546875 12.1875 26.328125 C 12.789062 27.109375 13.394531 28.011719 14 29.03125 C 14.601562 30.042969 15.1875 31.132812 15.75 32.296875 C 16.3125 33.464844 16.8125 34.601562 17.25 35.703125 C 17.6875 36.796875 18.035156 37.824219 18.296875 38.78125 C 18.566406 39.730469 18.703125 40.484375 18.703125 41.046875 C 18.703125 41.714844 18.625 42.375 18.46875 43.03125 C 18.320312 43.679688 18.082031 44.28125 17.75 44.84375 C 17.78125 44.917969 18.007812 45.011719 18.4375 45.125 C 18.875 45.242188 19.351562 45.375 19.875 45.53125 C 20.394531 45.679688 20.882812 45.804688 21.34375 45.90625 C 21.8125 46 22.113281 46.046875 22.25 46.046875 L 22.59375 45.953125 C 23.300781 44.382812 24.046875 42.824219 24.828125 41.28125 C 25.609375 39.730469 26.359375 38.171875 27.078125 36.609375 C 27.796875 35.039062 28.453125 33.445312 29.046875 31.828125 C 29.648438 30.214844 30.117188 28.554688 30.453125 26.84375 C 31.316406 29.179688 31.988281 31.554688 32.46875 33.96875 C 32.957031 36.386719 33.382812 38.828125 33.75 41.296875 L 33.546875 41.703125 C 34.117188 42.171875 34.757812 42.515625 35.46875 42.734375 C 36.1875 42.945312 36.878906 43.199219 37.546875 43.5 C 37.984375 42.898438 38.304688 42.261719 38.515625 41.59375 C 38.734375 40.929688 38.882812 40.246094 38.96875 39.546875 C 39.050781 38.851562 39.117188 38.140625 39.171875 37.421875 C 39.222656 36.703125 39.300781 35.996094 39.40625 35.296875 C 39.863281 35.328125 40.34375 35.386719 40.84375 35.46875 C 41.34375 35.554688 41.828125 35.5625 42.296875 35.5 C 41.992188 33.398438 41.914062 31.382812 42.0625 29.453125 C 42.21875 27.515625 42.492188 25.617188 42.890625 23.75 C 43.296875 21.886719 43.789062 20.03125 44.375 18.1875 C 44.957031 16.335938 45.566406 14.421875 46.203125 12.453125 C 46.335938 12.046875 46.585938 11.6875 46.953125 11.375 C 47.316406 11.0625 47.5 10.742188 47.5 10.40625 C 47.5 10.242188 47.46875 10.121094 47.40625 10.046875 Z M 46.25 46.75 "/>
</g>
</svg>
